<?xml version="1.0" standalone="no"?>
<!DOCTYPE svg PUBLIC "-//W3C//DTD SVG 20010904//EN"
 "http://www.w3.org/TR/2001/REC-SVG-20010904/DTD/svg10.dtd">
<svg version="1.0" xmlns="http://www.w3.org/2000/svg"
 width="220.000000pt" height="220.000000pt" viewBox="0 0 220.000000 220.000000"
 preserveAspectRatio="xMidYMid meet">

<g transform="translate(0.000000,220.000000) scale(0.100000,-0.100000)"
fill="#000000" stroke="none">
<path d="M0 1100 l0 -1100 1100 0 1100 0 0 1100 0 1100 -1100 0 -1100 0 0
-1100z m930 857 c-8 -8 -35 -19 -60 -26 -25 -8 -57 -22 -72 -33 -16 -11 -28
-15 -28 -10 0 25 148 108 164 92 7 -7 5 -15 -4 -23z m260 -467 c3 -14 16 -27
30 -31 14 -4 39 -14 55 -23 38 -20 55 -20 55 -1 0 24 21 27 93 11 37 -7 67
-10 67 -6 0 9 42 21 48 15 8 -8 -20 -35 -29 -29 -14 8 -10 -19 6 -40 8 -11 15
-34 16 -50 0 -17 3 -25 6 -18 9 23 23 12 17 -15 -6 -22 -4 -25 11 -19 15 6 17
2 12 -28 -3 -20 -15 -45 -26 -58 -12 -12 -21 -27 -21 -34 0 -7 -20 -19 -45
-27 -25 -9 -45 -13 -45 -9 0 4 -18 8 -40 9 -22 1 -40 -2 -40 -6 0 -5 -14 -14
-30 -21 -23 -10 -33 -10 -44 -1 -11 10 -16 9 -24 -5 -5 -10 -27 -18 -56 -21
-25 -3 -49 -10 -52 -14 -7 -12 -51 -11 -59 1 -3 6 -17 10 -31 10 -21 0 -24 -3
-18 -25 3 -14 3 -25 -1 -25 -9 0 -36 28 -35 37 1 4 -3 9 -9 11 -6 2 -11 -1
-11 -7 0 -6 -4 -11 -9 -11 -5 0 -8 8 -7 18 0 9 -5 16 -12 14 -7 -1 -34 9 -61
23 -45 22 -52 23 -77 11 -20 -11 -32 -12 -51 -3 -22 10 -24 15 -18 47 4 19 6
53 5 75 -1 47 44 116 88 137 15 7 33 25 40 40 18 39 59 64 117 72 188 28 177
28 185 -4z m50 -816 c0 -8 -5 -12 -10 -9 -6 4 -8 11 -5 16 9 14 15 11 15 -7z
m35 -61 c3 -13 2 -23 -3 -23 -11 0 -22 24 -22 48 0 21 15 5 25 -25z"/>
</g>
</svg>
