<?xml version="1.0" encoding="UTF-8"?>
<svg version="1.1" viewBox="0 0 800 800" width="800" height="800" xmlns="http://www.w3.org/2000/svg">
<path transform="translate(0)" d="m0 0h800v800h-800z" fill="#26313C"/>
<path transform="translate(0)" d="m0 0h800v800h-800zm396 11-5 3-2 3v3l-17-3-20-1-18 2-14 4-15 6-8 3-23 6-24 9-25 12-17 10-14 10-13 11-8 6-7 8-10 10-16 10-15 13-9 11-5 10-3 13-10 12-13 18-12 20-13 25-11 26-4 8-4 14-2 13-5 27-2 16-1 16v31l3 47 2 7h2v7l7 15 9 23 7 14 1 3h2l1 25 3 15 5 14 8 17 12 16 10 11 4 5 3 3h2v2l8 6 14 11 11 7 6 4 5 12 9 14h2l2 6 4 4 2 3 4 2 7 8 6 5h2v2l6 4 2-1-10-9h-2v-2h-2v-2l-4-3h-2l-2-5-4-2-2-4-4-6h-2l-2-5-5-7-6-12 23 12 21 9 19 7 25 8h2v2h2l1 7 5 10h2l-3-9-3-8 18 4 33 7 36 5 32 3h24l1 2 6-2-2-2h-13l-43-3-37-5-28-6-28-7-3-8-3-11 30 10 18 5 22 5 32 4 12 1 49 1-5 6 1 3 4-4v-2h3l1 10 1 1-10 1v2h10l3 11h1v-11l18-1v2l6 1-2-2 14-1v2h-2l1 6 5 1 72-1 5-3h9l9-6 5-2 3-5 25-6 21-6 22-9h2l-8 13-1 3h-2l-8 10-7 7-2 1 1 2 11-9 5-5v-2h2l6-9 5-7v-3h2l4-6 15-7v-2l4-1-7 11-11 12-8 9-12 9 1 2 6-4 14-12 11-12 12-17 5-5 11-8 10-8 12-11 14-14v-2h2l13-17 1-4h2l12-19 12-23 9-23 7-25 4-20 3-20 2-5 5-23v-21l-2-14h-2l3-30 1-4-4-34-3-19v-10l-3-16-6-15-6-11-11-30-14-29-12-20-12-17-11-15-6-9-11-11-8-6-14-12-12-10-20-14-35-21-13-10-19-11-13-7-30-10-4 1 6 2-15-4h5l-4-2-17-3-16-2-12-5-5-1h-19l-13 3-15 7h-2l-5-9-4-3z" fill="#000001"/>
<path transform="translate(396,11)" d="m0 0 7 2 4 5 3 6 6-2 14-6 10-2h19l13 4 4 2 28 4 9 2v1h-6l13 3-3-2 8 1 21 7 16 8 18 10 12 9 9 6 17 10 16 10 18 13 13 11 15 13 8 6 9 9 10 15 12 16 10 15 10 18 12 25 8 22 5 12 8 16 4 16 1 6v12l4 25 3 29-1 1-3 29h-1l-1-6-5-2-1 2-2-7-2-1v6h-1v-13l-4-7-2-1-2-5-3-2v-3l-8 7-2-1 8-8h2v-2l-4-2-13-13-4-2-5-5-8-7-15-10-5-2-4-4-29-15-24-10-29-10 6 14 11 31 9 30 4 14v6l-2-2-6-23-12-36-7-19-6-15v-2l-8-1-29-8v-3l26-8v-3l-14-29-14-26-16-26-2-3-17-3-2-1 2 27v65l31 6 2 2v2l-16 4-18 4-3 36-3 25-3 23 12 2 24 6v1l-9-1-22-5-6-1-2 15-2 11h-1v-8l4-19-15-2-26-4-31-3-4-1 2 32v13h5l3 4-1 1h-7l1 10 1 25v23h-1l-1-11-2-47-9 2-2 3-4-1-6-2-1-5-1-4-4-1v-2h21l5 2v-18l-1-14v-10h-69v23l5 1 3 1 1 2 6 2v2l8 1 3 2 7 2 1 3-8 2h-14l2-4-5-1-3-1v-2h-2l-4-4 1 12v12l-2-4v-20l-5-1-7-3-7-1v-4l-10 2-2 2h-7l3-4 5-2 12-1 12 2 4 3v-22h-5l-1 5-2 2-4-1-3-3v-2l-30 3-28 4-27 5-25 6h-3l-3 9 2 1 3 10 4 6 2 7 2 3 7 3 1 2 12-1 6-1h5l1-4h4v-5h2l1-9 3-3 17-1 5 1-1 6h-2l-1 6-3 10-4 2 1 3-3 2-1 3h2v2l-4-2 1-5 2-3-4 4v7l5 1v3l-2 1-2 5h29l6 1 1 3 6 3-1 9-2 7-1-4-1-2-6 2-4-2-23 1 4 2h-7l-8-2-4-4-6-1-8-3-7-8-2-1-3-5-2-1h-7l-8 2-4-2 6 20 4 2h-3l-1 3v-3l-7-1v-1h5l-7-21-4-2v-2l-4-1-3 7h-1v-10l-11-6-4-5-9-4-6-9 2-3h-2v2l-4-2-1-4-20 9-21 11-8 5h-2v-2l16-9 17-9 14-6h3v-2h2l-1-14-3-9-6-11-3-6-4-4 1-7-4-6-2-6-4-8v-18l-1-4h-6l-1 13 3 5 2 17 2 4 1 21 3 1 1 7-2 1-3-7-5-8v-11l-3-7-4-4-1-5 3-1v-9l-3-5-1-9-15 7-20 10-18 11-9 6-1 7 4 27 3 13v5l-2-3-5-25-3-20-5 3-10 8-6 5-7 8-3 2-4-1-9-15-5-11-3-14-2 6-4 25-1 10v43l1 4 4-13 8-16 7-11 5-6 5 1 9 10 8 7 2 3-5-2-16-16-4 2-10 15-7 15-4 13-1 5v9l5 27v5l-2-4-3-10v6l-2-4-1-7-2-35v-31l2-25 5-30 2-8 2-14 6-16 6-12 7-17 14-27 13-20 13-18 7-8 4-16 7-11 10-11 14-11 14-9 20-20 13-11 15-11 15-9 23-12 20-8 21-7 20-5 10-5 16-5 11-2 19-1 19 2 10 2 1-4 4-4z" fill="#90A5B3"/>
<path transform="translate(537,162)" d="m0 0 19 3 11 17 13 22 15 29 9 19-4 3-22 6 1 3 34 9 11 27 12 36 6 19 5 24 3 9v6l-5-1-10-5-4-1v2l6 2 14 7 2 5v8l-4 10-9 2v2l-21 7-35 9-28 6-14 2-23 2-8 1v-9l4-17h2l1-4 6 5 2 1h10l1-1v-5l-10-2-3-3v-6l3-3 2 1-3 4 1 4 6 1 3-6h2l1-8-5-3-6-1-6 1 3-21 2-19 1-3 10 1 19 4-28-7v-8l3-20 4-41 1-15 9-3 24-5v-3l-31-6-1-2v-64z" fill="#020304"/>
<path transform="translate(616,275)" d="m0 0 9 2 25 9 25 11 25 13 2 4 6 2 11 7 10 8 6 5v2l5 2 14 14 2 1v2l-8 7 5-4 3-1 1 3 4 3v4l4 2 2 3-1 13-3 21-4 17-8 24-1 2h-2l-2 10-5 8-2 5-4-4-6-10-7-9v-2l-5-2-15-15-11-9-14-10v-2l7-3-6 2-4 1-16-10h-2v-2l-3-1-4-22-2-7v-5h-2l-11-38-13-37-5-12z" fill="#010203"/>
<path transform="translate(517,75)" d="m0 0 11 1 28 5 11 6 30 20 12 9 17 14 11 10 3 2v2l4 2 16 16 2 4 2 1 2 3 5 5 10 11 11 14 2 3v3l-6-2-15-7 3 3 15 7-2 4-10 8h-2l-1-7-2 2v5 3l-9 6-16 8-23 10-17 6-4-1-11-24-10-19-15-26-9-14v-2l22 4 29 7 24 7 20 7 15 6v-2l-9-3-21-8-27-8-34-8-21-4-8-11-12-17-6-8-4-16-7-24-4-10z" fill="#010103"/>
<path transform="translate(329,471)" d="m0 0 1 3v2l9 2 8 5v5h5v2l10 1 2 3 5 2v2l5-1 1-5h-2v-2l7-5h4l2 17 2 24v11h-2v5l-8 3-2 8-2 4-1 11 6 3v3l-5 3h-2v8l1 9 5 1 6 4v1h-11l-40-3-3-1-11-17-11-18-6-11-10-19-9-19-9-20-2-5 10-4 20-6z" fill="#000001"/>
<path transform="translate(654,421)" d="m0 0h2l3 15 5 60v36l-5-1-5-4-8-1-3 2-6 1h-8l-2-1v-2l-4-2-15-11 2-5 1-2h-2l-1 2h-2l-1 2-6-2-10-6-1-5-4-1-3-3-9-3-13-1-16-6-5-3-5-4-8-2-1-4-2-1v-2l-9-1-3-3 2-3-4 1 2-6 36-5h5v-2l35-7 28-7 22-7 10-1-1 6-15 33 1-1 1 3-3 3h-3l-3 9-2 5v3l-4 8 1-1 10-18 5-11 9-19 10-23h2z" fill="#000102"/>
<path transform="translate(167,287)" d="m0 0 6 1 2 6v16l5 9 2 6 3 5-1 7 5 5 2 5 8 15 1 5v14h-2v2l-12 5-19 9-14 8-5 2v2l-7 3-20-10-13-8-3-13-3-9-5-25-2-19 3-5 21-13 25-13 15-7h1l1 10 3 5v9l-4 1 3 6v2l3 1 3 7v11l7 11 1 3-1-7-2-1-2-21-3-9-1-12-3-5 1-13z" fill="#020304"/>
<path transform="translate(693,209)" d="m0 0 6 2 7 9 14 22 12 22 4 16 4 23 4 5 3 9 3 8 3 22-1 4-5-6-8-7-10-9-11-8-15-10-18-10-16-8-16-7-24-9-15-5-6-15v-3l18-7 20-8 22-11 8-5 8-6z" fill="#020204"/>
<path transform="translate(372,347)" d="m0 0h5l1 2v21l-8-4-14-1-7 1-6 3-1 1h6l4-3h8v4h7l8 4 4 1v26l-8-2-7 3-2 3-1 5v17h5l1-1 1-17 2-2 5 1 1 2 1 16 3 2v2h2v26l-3 1-31-2v-19l-6-4v-3h-33l-2-1 2-6h2v-3l-5-1-1-7 3-4h2l-2 4 1 5 2 1v-2h-2l1-4 2-2-1-3 5-1 2-10 2-6h2l1-6h-10l-14 1-2 11h-2v5h-4l-1 5h-9l-10 2-5-1v-2l-7-2-4-6-2-6-4-8-3-10 3-7 28-7 27-5 36-5 9-1h13l4 5 4-1z" fill="#020305"/>
<path transform="translate(528,358)" d="m0 0 10 1 27 6 16 5 30 10 19 8v2l9 2 12 6 2 5v8l-4 10-9 2v2l-21 7-35 9-28 6-14 2-23 2-8 1v-9l4-17h2l1-4 6 5 2 1h10l1-1v-5l-10-2-3-3v-6l3-3 2 1-3 4 1 4 6 1 3-6h2l1-8-5-3-6-1-6 1 3-21 2-19z" fill="#010103"/>
<path transform="translate(140,414)" d="m0 0 8 1 12 5 16 6 23 7 24 6 7 3v9l-3 37-1 16-16 10-13 10h-2v2l-5 4h-2v2l-5 3-11-14-11-16-7-11-8-13-4-8-3-2-9-19-7-15-2-4v-5z" fill="#000102"/>
<path transform="translate(480,156)" d="m0 0h6l-2 18-2 5 10-1h10l1 3 4-5 2-6h-3l-2-4h-9l-1-3h-5l1-6h11l31 4 2 4 2 22 1 18v42l-1 7-8-1-38-5-46-4-2-14-2-23 8-6 6-2 4-1-1 4-3 1-1 6 5 1 5-6 12-6 2-4 4-2v-2l-5-4-2 8h-11v-1l5-1h-6l-4 1-4-5v-5h-6v-2l6-1 1-5-7-1-8 3h-3v-3l2-1 2-5 3-1 28-3z" fill="#020305"/>
<path transform="translate(451,347)" d="m0 0 26 2 31 4 19 4-2 15-2 9-2 7-2 17-8 36-1 4h-2l-1 7-11 2-1 1-10 1h-29l-1-27v-22h-2v-10l7-1-2-3-5-1-2-24z" fill="#010203"/>
<path transform="translate(118,431)" d="m0 0h2l6 14 7 15 5 10 3 7 10 18 9 14v2h2l7 11 4 5 7 9-1 5-3 3h-2l-2 5-7 8-8-2-18-8-22-12-18-12-20-16v-2l-4-2-1-1v-10l5-12 6-11 3-5h2l2-5 3-3 1-2h2l2-4 3-3 3-5 9-9z" fill="#000001"/>
<path transform="translate(673,413)" d="m0 0 4 1 10 7 11 9 10 9 8 8 2 6h2l13 18 3 6-1 5-8 15-15 23-7 10-1 2-10 5-14 8-10 5h-1v-19l-2-1-1-38-1-28h-2l-5-38v-7z" fill="#000102"/>
<path transform="translate(528,272)" d="m0 0h7v14l-4 42-3 24-1 3-11-1-36-5-30-3-3-52v-14l33-2 28-3z" fill="#020204"/>
<path transform="translate(268,488)" d="m0 0 3 4 11 24 9 19 10 19 8 14 11 18 5 8-1 2-36-5-27-5-31-7-1-1-1-26v-22l1-21 1-4 17-8 13-6z" fill="#000001"/>
<path transform="translate(380,346)" d="m0 0h57l12 1 2 24v19l-6-2h-16l-5-1v3h3l2 5v3l-13-1v4l-5 5-1 13-8 3v5l7 1 6-3 2-5 1-11 6-2h2l1-7h3l1 19 3 6 6 3 7-1 3-1 1-3h1l1 32h-3v2h-5l-3-3-6 2-3 2h-47l-1-2-1-16-1-2v-29l5-1v2h2l1 18h5l1-2v-10l-1-12h4v-2l-18-2-1-16-1-8 4 2v2h2l1 2h6l2 4-1 1h14l1-1h5l-3-3-6-2-10-3v-2l-6-1-1-3-8-2-1-7v-16z" fill="#020204"/>
<path transform="translate(560,166)" d="m0 0 22 4 29 7 24 7 20 7 15 6v-2-3h-2l-3-8-2-10-1-8 2 1 2 3 5 5 10 11 11 14 2 3v3l-6-2-15-7 3 3 15 7-2 4-10 8h-2l-1-7-2 2v5 3l-9 6-16 8-23 10-17 6-4-1-11-24-10-19-15-26-9-14z" fill="#010203"/>
<path transform="translate(745,504)" d="m0 0 2 2 2 12v17l-3 17-6 16-9 16-3 5h-2l-2 5-9 11-5 5-5 4-5 5-12 10-18 12h-1l1-9 1-5v-27l-4-16-1-5 3-4h2l1-3 18-18 11-14 8-9 16-10 14-12 4-3h2z" fill="#000001"/>
<path transform="translate(123,209)" d="m0 0 4 1 5 5 8 7 14 9v7l-1 5v17l4 4 4 6-1 18-21 10-22 12-16 10-3 1v2l-4-1v-50l3-24 5-24 3-5z" fill="#020305"/>
<path transform="translate(230,582)" d="m0 0 12 2 12 3 26 5 48 7 9 12 10 14 22 26 2 4 3 1 6 7 2 1v2h2v3l4 2 5 5 5 4v2h2v2l-7-1-31-11-20-9-19-10-16-9-16-10-13-9-11-8-13-10-14-11-4-4v-2l-4-2-2-2z" fill="#000001"/>
<path transform="translate(230,591)" d="m0 0 5 3 11 10 16 12v2l5 2 11 8 2 1v2l5 2 19 12 18 10 23 11 31 13 21 7 1 2h-31l-35-3-36-6-35-10-21-8-5-24-4-29z" fill="#000001"/>
<path transform="translate(421,67)" d="m0 0h19l17 1v2h-2l1 6 3 1 2 4 5 2 4 4 6 5 7 4 8 5 8-1 10 4 9 10 10 13 4 20 1 12-13-1-33-4v-6l-3-5-7-2-3-3v-2l-11-1-8-6-1-4h-2l-5-5-9-8-3-1-1 6-2 3h-3l-2-10v-9l-1-3h6l-2-5-2-1v-2l-4-1-1-5 4 2 5 1 2-3 1-5h-6l-7-3z" fill="#020304"/>
<path transform="translate(166,562)" d="m0 0 10 3 30 10 13 4v2l4 2 3 3 1 6 4 36 5 25v6l-14-5-22-11-23-14-12-8-16-12-1-4 4-17 8-18z" fill="#000001"/>
<path transform="translate(754,359)" d="m0 0h2l1 3 4 3v4l4 2 2 3-1 13-3 21-4 17-8 24-1 2h-2l-2 10-5 8-2 5-4-4-6-10-7-9v-2l-5-2-15-15-11-9-14-10v-2l7-3 4-4 6-3h2l1-3 26-14 9-7 2-3 3-1 2-3 2 1v-2l9-6z" fill="#020204"/>
<path transform="translate(206,95)" d="m0 0h4l-1 10-1 3-2 1-1 3h-2v6l-4 4v2l2 1-2 5-3 3-2 10-4 8h-4l1 16h3v-7l2-1 1 7-2 4-7-1-3 10-5 6-31 12-20 9-6-8-4-7v-6l13-27 10-16 15-14 11-9 14-11 10-7z" fill="#020305"/>
<path transform="translate(99,223)" d="m0 0 1 3-4 20-2 15-1 14v51l-10 7-4 4-8 7-9 9-4-2-9-16-5-13-1-5v-17l8-26 5-11 11-14 9-9 13-10z" fill="#020305"/>
<path transform="translate(389,281)" d="m0 0h55l3 31 2 33h-70l-1-12-1-39 3-6 6-3z" fill="#020305"/>
<path transform="translate(313,383)" d="m0 0 10 1-1 6h-2l-1 6-3 10-4 2 1 3-3 2-1 3h2v2l-4-2 1-5 2-3-4 4v7l5 1v3l-2 1-2 5h29l6 1 1 3 6 3-1 9-2 7-1-4-1-2-6 2-4-2-23 1 4 2h-7l-8-2-4-4-6-1-8-3-7-8-2-1-3-5-2-1h-7l-8 2-4-2 6 20 4 2h-3l-1 3v-3l-7-1v-1h5l-7-21-4-2v-2l-4-1-3 7h-1v-10l-11-6-4-5-9-4-3-5 1-2 5-1v2h2l1-2 10-1 1-1h21l3-4 4 6 2 7 2 3 7 3 1 2 12-1 6-1h5l1-4h4v-5h2l1-9 3-3z" fill="#596C7D"/>
<path transform="translate(309,312)" d="m0 0h20l7 3 1 2h5l1-2 4 1 3 2v3l4 2 1 14 2 2 2 5 1 2-2 1-38 4-40 7-25 6-6 1 1-16 4-1v-14l3-6 5-4 8-1v-2l3-3 14-1 3 2 1-3 5 2 2 2h9v-4l-4-1v-2z" fill="#030406"/>
<path transform="translate(60,358)" d="m0 0 4 2 14 14 2 1-1 8-4 21-4 28-1 13v51h-2v-2h-2v-2h-2l-9-12v-2h-2l-6-12-4-14-1-4-1-7h-2l-4-23v-9l4-15 7-16 9-14z" fill="#010102"/>
<path transform="translate(654,421)" d="m0 0h2l3 15 5 60v36l-5-1-5-4-8-1-3 2-6 1h-8l-2-1v-2l-4-2-15-11 2-5 1-2-2-1 2-6 4-1v-2h3l2-6 8-14 5-11 9-19 10-23h2z" fill="#000001"/>
<path transform="translate(75,508)" d="m0 0 3 1v2l4 2 14 11 13 9 14 8 19 10 11 5 9 4-2 6-8 16-5 16-1 7-4-2-9-7v-2l-5-2-5-6-7-6-7-8-9-10-10-13-8-11v-3h-2l-3-11z" fill="#000001"/>
<path transform="translate(567,84)" d="m0 0 8 1 32 9 6 2 4 7v2l6 2 4 5v2h4l-2-7-8-6 1-2 5 3 8 7 5 3 2 2v-6l5 2 4 8 3 7 8 3 11 9 7 8-2 5-3 2v6l5 2 6 8 7 10v3l4 1 5 6 3-1-1 5-6 9-4-1-11-14-13-15-9-11-2-1v-3l-5-2-17-17-11-9-10-9-13-10-20-14-16-10z" fill="#050609"/>
<path transform="translate(196,384)" d="m0 0h3l3 5 2 1v-2h2l-1 4 5 6v2l4 1 6 3 5 5 10 6-3 24-2 1-36-9-36-12-7-3v-2l-7-1 4-4 19-11z" fill="#030406"/>
<path transform="translate(333,600)" d="m0 0h11l26 2 15 1 5 4 4 7 2 4 6 43 3 21-5-2v-2l-4-2-16-16-1-3-3-1-7-8v-2h-2l-5-6v-2h-2l-7-10-10-13-10-14z" fill="#000001"/>
<path transform="translate(84,380)" d="m0 0h2v3l5 2 6 3 10 7 11 32v3l-12 11-5 5h-3l-2 4-2 2-1 4-3 1-10 16h-2l-1 5-3 6h-1v-32l2-25 4-27 2-10 2-9z" fill="#010103"/>
<path transform="translate(68,522)" d="m0 0 4 5 3 5 7 26 6 18-1-4v-7l-5-18 1-3 4 6 10 13 5 6v2l4 2 12 13 9 9 9 7v2l4 2 5 4 1 17 3 15-5-2-13-9-9-7v-2l-4-2-8-7-5-6-3-7-2 2-3-6-4-2-10-15-8-16-5-17-2-14z" fill="#000001"/>
<path transform="translate(444,246)" d="m0 0h11l44 4 34 5 3 1v13l-1 1-35 5-31 3-22 1-1-1-2-25z" fill="#040507"/>
<path transform="translate(495,37)" d="m0 0 9 1 32 8 24 8 17 7v2l9 3 30 15 11 7 9 10 4 4-1 2-5-4-7-3-11-6-6-2-5-5-7-2 4 5 6 4-2 1-29-8-18-4-10-6-2-9-12-3-1 4-6-2-22-10-9-14z" fill="#030406"/>
<path transform="translate(148,228)" d="m0 0 5 2 1 4-1 9v17l4 4 4 6-1 18-21 10-22 12-10 6h-3l3-10 5-12 14-29 4-9-1-2 3-5 3-1v-2l3-3v-3h2l6-11z" fill="#020304"/>
<path transform="translate(148,613)" d="m0 0 9 6 13 9 11 7 11 6 14 8 16 7 15 6 3 5 4 16-9-2-30-10-17-7-26-13-9-6-3-9-2-10z" fill="#000001"/>
<path transform="translate(658,586)" d="m0 0 1 2-6 28-5 17-5 15-3 8h-2v3l-17 8-29 11-10 3-4-1h2l2-7 3-6 10-8 3-3 5-2 5-4 10-5 4-5h3l1-5 6-9h2l3-10 2-2 5-16 9-8h2v-2z" fill="#000001"/>
<path transform="translate(376,82)" d="m0 0h3l-1 13-4-2-8-5h-2l-5 9 7 1 2-2 7 1 2 1v13l-2 40h-8l-1-9-10-1-10-5-4-4-9-2-5 1 1-5 10-17 8-12 9-4h2l2-5 2-1 1-3 7 1 5-2z" fill="#040507"/>
<path transform="translate(40,312)" d="m0 0 2 2 4 16 8 16 5 8 5-1 8-9 8-7 12-9 1 4-3 11-8 28-1 2-4-2-12-11-3-3-4 1-7 10-9 16-5 13-2 7h-1l-1-6v-43l3-24z" fill="#070A0D"/>
<path transform="translate(376,32)" d="m0 0h8l-3 2h-2v2l3 1-2 1-4-2-7 1 1 6 7-1-4 5 2 1h7l-1 2-7 1-4-1v-2l-9-1 4 3-1 4h12l-1 3-7 1-4 3-2 5h-8l-1-4 10-5-1-1h-8l-2 6-6 5-14 1-2-4 4-6 6-6 5-2h6v2l5-2 2-5 7-2-4-1-4-3-1 4 3 1-10 1-6 2-5 2h-3l-2-4 2-1-8 1 4 2-5 1v2l3 1 3 2-9 5h-3v-6h-10l-11 6-1 3 9-2v3l-2 2h3v2l-7 1v3l-4 1-4-3v-2l-8 1v-3h-17l5-7 15-6 24-7 26-6 30-5z" fill="#080A0D"/>
<path transform="translate(223,509)" d="m0 0h3l-1 68-6-1-6-7-11-11v-2h-2l-6-7v-2h-2l-6-9 5-5 11-10 18-12z" fill="#000001"/>
<path transform="translate(402,245)" d="m0 0h22l17 1 2 18 1 15h-49v-5l4-2 1-2h-4v-2h3v-5l-3-1-1-10h4l3 3 1-5z" fill="#020305"/>
<path transform="translate(258,448)" d="m0 0 17 1 42 6 6 3 3 5 3 3v2l-44 11-11 4-4-1-11-28z" fill="#010103"/>
<path transform="translate(769,387)" d="m0 0 2 1v8h2v12h-2v8l-1 7h2l1-4 2 5v16l-1 4-1 17-7 14-6 8-1 3h-3l-2 4v-3l4-7 3-8 2-18h-2l-1 7-8 22-3 8-1 3 2 1h-3l-7-17 7-15 1-5h2l3-14 7-21 5-20 2-6z" fill="#030305"/>
<path transform="translate(235,443)" d="m0 0 16 3 3 2 1 5h2l3 8 2 9v4h2l3 8v3l-27 12-8 4h-2l1-25v-19l2-2z" fill="#000002"/>
<path transform="translate(275,408)" d="m0 0h3l1 17 1 2 5 1 1-19h3l-1 3v8l5 1 1-3h2l1-2 5 8v2l5 2 2 1h27l6 1 1 3 6 3-1 9-2 7-1-4-1-2-6 2-4-2-23 1 4 2h-7l-8-2-4-4-6-1-8-3-7-8-2-1-3-5 1-6 3-1-1 6h2z" fill="#526170"/>
<path transform="translate(567,84)" d="m0 0 8 1 32 9 6 2 4 7v2l6 2 4 5v2h4l-2-7-8-6 1-2 5 3 8 7 5 3v5l3 1v4h2l4 8 4 6 5 13 1 7-5-2-17-17-11-9-10-9-13-10-20-14-16-10z" fill="#050709"/>
<path transform="translate(387,69)" d="m0 0 14 7 3 3-1 3-3 3v3l-9 1-3 2v2l13-1 7 3 1 4 13 2 2 1 2 11v7l-6-2-3-8v-2h-6l-6-5-4-1h-13v15l-2 2-1 4 5 2 2 3v9l-8 6-4 1v7l-3-1 2-44h3v-2h-2v-13l2-21z" fill="#090B0E"/>
<path transform="translate(250,386)" d="m0 0 4 5 4 9 1 2 4 2-9 4-2 5 1 5 2 3 6 2-3 2-5 1-4-2 6 20 4 2h-3l-1 3v-3l-7-1v-1h5l-7-21-4-2v-2l-4-1-3 7h-1v-10l-11-6-4-5-9-4-3-5 1-2 5-1v2h2l1-2 10-1 1-1h21z" fill="#5A6D7F"/>
<path transform="translate(646,364)" d="m0 0h1l4 17 3 17 16 9 4 3 6-2 5-1-1 2-7 2v2l4 2 11 8 14 12 5 6-4-2-12-11-13-10-6-4-6 1-9 4h-3l5 37 1 8v13h-1l-5-41-2-15h-2v2h-2l-3 9-10 23-13 26-8 15-2-1 5-10-1-2 6-13 5-3-2-2 7-15 7-16v-2h2l-1-3h2v-3l-16 4-27 8-41 9h-6l4-2 29-6 37-10 12-4h2v-2l5-2h4l2-9 1-1v-8l-1-4-20-10v-2l6 1 13 6-2-10-3-9-1-7z" fill="#6F8392"/>
<path transform="translate(108,175)" d="m0 0h1l2 9v6l-8 24-3 7-12 8-10 8-10 9-7 8-1-2 12-24 12-20 11-16z" fill="#050709"/>
<path transform="translate(100,371)" d="m0 0 2 3 3 3 2 7 2 10 22 12 11 5 6-2-3 3 6 2v2l5 1 25 9 32 9 18 4 2-13 3-2-1 12-1 4 9 2v1l-9-1-1 14-1 2v7h-1l-1-5 1-17 1-2-9-1-31-8-30-10-13-5-5-2-5 1-15 11-3 1 6 18-3-3-4-9v-3l-8 6-11 11v-3l17-17-5-12-7-21-10-7-7-3-3-2-1-3-2-2h3l10 6 8 5-2-6-2-8z" fill="#5E7181"/>
<path transform="translate(432,654)" d="m0 0 11 1 5 2 2 3 3 1v12l-1 9-17 3-23 2 2-5 7-10z" fill="#000001"/>
<path transform="translate(336,400)" d="m0 0h10l5 3 3 5 1 6v12l-2 3-6-1-1-15-2-4h-6l-2 5 1 4 7 3 1 6-3 1v2h-33l-2-1 2-6h2v-3l-5-1-1-7 3-4h2l-2 4 1 5 2 1v-2h-2l1-4 2-2-1-3 5-1 1-5 5 5-1 4-8 8-1 2h9l3 2v6l9-1-4-5-1-3v-10l4-7z" fill="#26313C"/>
<path transform="translate(663,583)" d="m0 0 2 2 4 15 1 8v10l-2 15-4 12-19 11h-2l3-10 2-6h2l1-7 8-28z" fill="#000001"/>
<path transform="translate(261,423)" d="m0 0h7l5 4v3l4 2 1 3 3 1 2 3 9 2 5 1v2l3 1v2l6 1v2h10v2l-3 1h-10l-27-4v-2l-10-1-10-2-5-14v-3h-2v-3l6 1z" fill="#030406"/>
<path transform="translate(172,188)" d="m0 0 1 3-9 12-4 9-4 8-3 8-10-6-10-8-5-5 1-3 29-13z" fill="#040507"/>
<path transform="translate(482,399)" d="m0 0 10 2 2-1h9l5 4 2 4v19l-1 2h-5l-2-2-1-19h-5v18l-3 3-4-1-1-2-1-16-5-1-1 16-1 3-5 1-2-2v-19l3-6z" fill="#26313C"/>
<path transform="translate(341,27)" d="m0 0h44v2l-35 5-29 6-25 7-15 5-2-1 11-10 11-7 3-2 27-4z" fill="#06080B"/>
<path transform="translate(400,626)" d="m0 0 6 3v2h2l2 4 2 1v5l9 7 9 4-6 12-8 12-5 8h-2l-3-17-4-27z" fill="#000001"/>
<path transform="translate(380,379)" d="m0 0h1l1 5v16l3-1 15 3v2h-4l1 2 1 10v10l-2 3h-5l-1-1v-18h-2v-2l-4 1-1 10h-1v-18h-2l1 11v19l-1-2-4-2-1-16-1-2-5 1-1 17-2 2-5-1-1-2v-15l2-6 3-4 8-2 5 2 1-5h1z" fill="#26313C"/>
<path transform="translate(770,474)" d="m0 0h1l-1 11-4 19-8 26-6 15h-1v-30l-2-11v-4h2l1-4 5-5 3-4h2l2-5z" fill="#000001"/>
<path transform="translate(237,417)" d="m0 0 5 2v2l5 2 6 18v4h2l-3-8-2-6 1-4 5 15v2l10 1 10 2v2l13 1 28 4 1-2 1 4-39-5-18-2-4-1 7 19 2 5-1 3-4-1-5-19v-2h-2l-2-5-11-3-6-1-2 11h-1v-9l1-4h6l-7-1z" fill="#3E4C59"/>
<path transform="translate(92,328)" d="m0 0 1 4-3 11-8 28-1 2-4-2-12-11-1-5 4-6 4-5 8-7z" fill="#040508"/>
<path transform="translate(662,166)" d="m0 0 2 1 2 3 5 5 10 11 11 14 2 3v3l-6-2-15-7 3 3 15 7-2 4-10 8h-2l-1-11h-2l-2 2-1-5v-9l-1-4h-2l-3-8-2-10z" fill="#090C0F"/>
<path transform="translate(436,208)" d="m0 0h2l3 36-33-1 1-8 10-4 6-4h7l-1-3-3-1-1-7 3-5z" fill="#06080B"/>
<path transform="translate(368,37)" d="m0 0 2 3v3l7-1-4 5 2 1h7l-1 2-7 1-4-1v-2l-9-1 4 3-1 4h12l-1 3-7 1-4 3-2 5h-8l-1-4 10-5-1-1h-8l-2 6-6 5-14 1-2-4 4-6 6-6 5-2h6v2l5-2 2-5 7-2-4-1 1-3z" fill="#0E1217"/>
<path transform="translate(341,198)" d="m0 0h10l1 2 4 1 3 6 14 2 1 7h-2l-2 9-3 1v-5l-6 1 1-5-2-2-5 1-3 1v13l-2 3h-4l-2-5 1-10v-3l1-3 10-1v-2h-13l-3-1-3 1h-9v-2l10-6z" fill="#0C0F13"/>
<path transform="translate(291,402)" d="m0 0h2l-1 5-5 2-1 16-1 3h-5l-2-3v-17h-3v16h-2l1-6-2 1-2 5-12-1-5-3-2-4 1-6 5-5 7-1 3 3 12-1 6-1h5z" fill="#57697A"/>
<path transform="translate(767,377)" d="m0 0h1v7l4 2 1 4h2l1-2 1 3 2-1 1 8 2 1 2 14v21l-4 17-2 4-1-2 4-15v-18l-2-15-1-1-1 38-2 22h-1v-40l-4-1 1-15h2v-12h-2l-1-8-3 14-3 9-7 25-7 18-1-3 6-17 4-14 4-17 3-23z" fill="#546574"/>
<path transform="translate(403,34)" d="m0 0h2v3h2v2l-7 2-1 2h3l4 4h8l3 14v3h-14l-7-2-5-4-7-1 1-8 4-2 1-3z" fill="#040608"/>
<path transform="translate(182,541)" d="m0 0h2l9 11 5 5v2h2l7 8 5 6-11-2-32-11v-3l6-8 5-6h2z" fill="#000001"/>
<path transform="translate(504,73)" d="m0 0 9 1 4 9 7 23 3 14-3-1-7-9-8-9-6-11-2-6-4-5 1-3z" fill="#050709"/>
<path transform="translate(484,25)" d="m0 0 17 2 25 6 17 6 16 7 7 4-2 3-11-3-18-6-44-11-7-7z" fill="#080A0D"/>
<path transform="translate(377,465)" d="m0 0h6l1 15h-6l-9 5-7-1-5-3-8-8-1-5 15-2z" fill="#000001"/>
<path transform="translate(523,386)" d="m0 0h1l-1 12-1 3 8-2 8 3 2 2v5l-2 3h-2l-3 6h-6l-2-5 2-4-2 2v6l2 2 10 2 1 1v5l-2 2h-10l-6-4-2-2-2 3 1-7 4-24z" fill="#26313C"/>
<path transform="translate(378,363)" d="m0 0h2v7l5 1 3 1 1 2 6 2v2l8 1 3 2 7 2 1 3-8 2h-14l2-4-5-1-3-1v-2h-2l-4-4 1 12v12l-2-4v-20l-5-1-7-3-7-1v-4l-10 2-2 2h-7l3-4 5-2 12-1 12 2 4 3z" fill="#899EAD"/>
<path transform="translate(634,663)" d="m0 0 2 1-4 8-20 9-20 7-19 5-11 2 4-4 3-1 5-5 20-6 29-11z" fill="#000001"/>
<path transform="translate(653,408)" d="m0 0 2 3 1 7-5 4 3 1h-2l-3 9-10 23-13 26-8 15-2-1 5-10-1-2 6-13 5-3-2-2 7-15 7-16v-2h2l-1-3h2v-3l-16 4-27 8-41 9h-6l4-2 29-6 37-10 12-4h2v-2l5-2h4l2-9z" fill="#435260"/>
<path transform="translate(374,295)" d="m0 0h2l1 25v25h-5l-4-12v-9h-2l-3-7v-9l3-7 6-5z" fill="#090B0F"/>
<path transform="translate(447,397)" d="m0 0h4l1 2v18l-5 8-2 1h-7l-5-5v-22l4 2h3l2-3z" fill="#28343F"/>
<path transform="translate(68,522)" d="m0 0 4 5 3 5 7 26 6 18 1 4h2l1-3 3 9h-2l3 6-1 4-7-9-9-15-6-15-4-16-1-9z" fill="#020304"/>
<path transform="translate(94,343)" d="m0 0 2 1 4 22 2 13 2 10-6-2-8-6-5-3-1-3 9-31z" fill="#030406"/>
<path transform="translate(710,171)" d="m0 0h1l2 10 3 7-1 6h-3l5 10 4 16-1 3-10-7-9-6-3-4 2-5 5-8 3-4z" fill="#090C0F"/>
<path transform="translate(392,464)" d="m0 0h27v2l-8 1-2 11-9 9-5-2-3-3-5-2v-15z" fill="#000001"/>
<path transform="translate(526,368)" d="m0 0h1l-1 12-1 6h-2l-2 16-3 17-4 15-2 9-1 9 8-2 30-3h7v1h-5v2l-26 4-15 2-1 3h-2l-1 2-1-4h-17l-30 2v-2l37-3 1-1 11-1 1-7h2l1-8 7-32 2-17 2-7 2-4z" fill="#3C4956"/>
<path transform="translate(110,397)" d="m0 0 15 8 15 7-5 5-11 8-2 2h-3l-8-22-1-2z" fill="#080B0E"/>
<path transform="translate(778,402)" d="m0 0 2 3 2 15v18l-4 16 1 3-2 5-3 18-3 2-1-7-7 10-4 1 1-5 8-11 4-9 1-17h1l1 11 1-13 1-38z" fill="#2D3844"/>
<path transform="translate(424,387)" d="m0 0h21l6 3 8 3 2 3-1 1h-7l1 10 1 25v23h-1l-1-11-2-47-9 2-2 3-4-1-6-2-1-5-1-4-4-1z" fill="#677A8A"/>
<path transform="translate(424,389)" d="m0 0 5 1 2 8 2 2h-6l-1 7-7 2-1 11-3 6-6 3-7-1-1-1v-5l3-2 5-1 1-13 4-5h2v-4h13l-2-3v-4z" fill="#26313C"/>
<path transform="translate(738,483)" d="m0 0 3 4 4 11-1 3-8 7-4 2v2l-17 12v-3l11-17 10-18z" fill="#000001"/>
<path transform="translate(380,401)" d="m0 0h2l2 37 1 2 1 18h47l1 2-63 1-19-1-5-2 2-2 32 1v-26l-1-19z" fill="#4A5967"/>
<path transform="translate(380,379)" d="m0 0h1l1 5v16l3-1 15 3v2h-4l1 2 1 10v10l-2 3h-5l-1-1v-18h-2v-2l-4 1-1 10h-1v-18h-2v11h-1v-16h1z" fill="#29343F"/>
<path transform="translate(93,329)" d="m0 0h1l1 14-3 7-7 26v3l-3 11-2 10-2 11h-2l-1 2-1-9 5-25 2-3-1-3 12-39z" fill="#212B35"/>
<path transform="translate(417,47)" d="m0 0h6l9 5 1 3h3v2h2l1 2 10 1 3 3-7-1v3h-24l-3-9z" fill="#07090C"/>
<path transform="translate(59,356)" d="m0 0 5 1 9 10 8 7 2 3-5-2-16-16-4 2-10 15-7 15-4 13-1 5v9l5 27v5l-2-4-3-10v6l-2-4-1-7-2-35v-11l1-9h1l1 22 1 4 4-13 8-16 7-11z" fill="#5B6D7D"/>
<path transform="translate(35,432)" d="m0 0 2 2 3 11 1-4 1 7 2 1 2 10 3 10 4 7v2h2l8 11 1 5-5-2-4-5-2 1-5-8-5-13-5-10v-7h-2l-2-7v-5l1-2z" fill="#323E4A"/>
<path transform="translate(149,120)" d="m0 0 2 1-8 10-8 11-5 4-1 2h-2l-2 4-13 13 2-9 6-10 9-10 11-10z" fill="#090B0F"/>
<path transform="translate(693,541)" d="m0 0 2 1-9 11-2 3h-2l-2 4-14 14-2-1 1-5 1-12 9-6 16-8z" fill="#000001"/>
<path transform="translate(711,441)" d="m0 0 7 6 4 2 8 11 8 13 5-9 3-5 2-8 2 1 2-2-1 6-1 2h-2l-1 7-6 13 1 8-4-1-4 6-3 1v-5l4-7-1-5-7-11-7-9v-2h-2l-5-8z" fill="#303C48"/>
<path transform="translate(376,32)" d="m0 0h8l-3 2h-2v2l3 1-2 1-4-2-5 1-9 3h-3l-2-1-1 4 3 1-10 1-6 2-5 2h-3l-2-4 2-1-2-2v-3l28-5z" fill="#0B0E12"/>
<path transform="translate(315,397)" d="m0 0 2 4-1 5-4 2 1 3-3 2-1 3h2v2l-4-2 1-5 2-3-4 4v7l5 1v3l-2 1-2 4-5-2-4-7v-11l4-6 9-3 4 1z" fill="#5A6B7C"/>
<path transform="translate(317,401)" d="m0 0 5 5-1 4-8 8-1 2h9l3 2v6h10v1l-17 1h-8l-2-1 2-6h2v-3l-5-1-1-7 3-4h2l-2 4 1 5 2 1v-2h-2l1-4 2-2-1-3 5-1z" fill="#26313C"/>
<path transform="translate(679,131)" d="m0 0 8 6 9 10 8 10 3 8 1 5v8l-2-1v-4h-2l-3-6-6-7-8-14-5-5-2-6z" fill="#0B0E12"/>
<path transform="translate(345,50)" d="m0 0h6v3l4 1-2 5-3 5-4 3-14 1-2-4 4-6 6-6z" fill="#0D1014"/>
<path transform="translate(237,417)" d="m0 0 5 2v2l5 2 5 20-19-2z" fill="#06080B"/>
<path transform="translate(499,456)" d="m0 0h7l-1 5-5 2h-3l-2 4-7 1-6-3-12 1-5-5v-2z" fill="#000001"/>
<path transform="translate(676,323)" d="m0 0h1l-1 13-3 16-6 27-6 20-1 2h-4v-2l-3-1 1-4 1 3 2 1 2-9 7-26 7-35h1l-1 13z" fill="#202932"/>
<path transform="translate(480,402)" d="m0 0h8l4 2 3-2h7l5 5v20h-2l-1-3v-12l-2-5-5-1-2 1-1 8-1 11-3-1-1-17-3-2-5 1-2 3-1 16h-2l-1-2v-14l4-7z" fill="#000001"/>
<path transform="translate(707,217)" d="m0 0 5 2 10 7 5 5 3 8v15l-3-3-8-14-9-14-3-4z" fill="#0D1115"/>
<path transform="translate(778,399)" d="m0 0 2 2 2-2 2 14v21l-4 17-2 4-1-2 4-15v-18l-2-15-1-1-1 38-2 22h-1v-40l-4-1 1-15h1l1 6 2-1 2-13z" fill="#43525F"/>
<path transform="translate(626,276)" d="m0 0 6 1 26 10 22 10 23 13 15 10 13 10 7 6-1 3-8-7-11-9-11-7-5-2-4-4-29-15-24-10-20-7z" fill="#879CAA"/>
<path transform="translate(451,347)" d="m0 0 4 1h-3l2 27 6-3h9l5 3 3 7v7l-2 4 6 3-3 3h-6l-1-5 2-5v-6l-3-5-3-1h-7l-4 5v8h2v2h-5l-2-24z" fill="#27323E"/>
<path transform="translate(291,35)" d="m0 0 3 1-9 7-10 9-5 4-4 1-3-12 2-2z" fill="#090C10"/>
<path transform="translate(357,39)" d="m0 0 4 2h5l-1 3-7 2-2 5-5 1v-2l-9 2-8 5-9 1 4-3h2v-2l-5-3v-2l4-1-4-2 5-2h5l-2 3 3 3 2-2 9-2 7-2z" fill="#798C99"/>
<path transform="translate(517,28)" d="m0 0 8 1 21 7 16 8 18 10 10 7-2 2-12-7-4-2-4-1-1-3-11-4-18-8-19-6 4-1-6-2z" fill="#586671"/>
<path transform="translate(416,692)" d="m0 0 8 1 16 3 10 2 1 3-1 3-4 1h-14l-6-3v-2l-5-2-5-4z" fill="#000001"/>
<path transform="translate(127,256)" d="m0 0 2 4-11 23-8 17-6 16 2 1-6 4h-2v2l-4-1 4-4 8-20 6-13 2-4h2l7-14-2-1z" fill="#26313C"/>
<path transform="translate(602,74)" d="m0 0 14 7 11 7 9 10 4 4-1 2-5-4-7-3-11-6-5-1 2-4h-2l-1-2-3-2-5-5z" fill="#0A0D11"/>
<path transform="translate(533,134)" d="m0 0 5 5 10 14 5 8v1l-13-1-4-2z" fill="#0A0D10"/>
<path transform="translate(509,58)" d="m0 0 6 2 12 6v2h5l5 3 11 5v1l-11-1-19-3-3-1-6-12z" fill="#0C0F13"/>
<path transform="translate(621,99)" d="m0 0 5 2 7 7 6 3 1 4v2l3 1v4h2l4 8 4 6 5 13 1 7-5-2-4-5 3-1-3-5 1-5-2-4-2 2-9-16-5-7-2 1-2-7-8-6z" fill="#4C5A66"/>
<path transform="translate(604,255)" d="m0 0 2 1 5 12v3l-16-4-15-4 2-2z" fill="#0C0F13"/>
<path transform="translate(388,494)" d="m0 0 4 2 4 5 1 11 1 6 1 7h-2l-2 4-4 2-3-33z" fill="#000001"/>
<path transform="translate(460,400)" d="m0 0h6l1 1v26l-2 2-5-1-1-2v-24z" fill="#26313C"/>
<path transform="translate(450,684)" d="m0 0 2 1-1 11-16-2-17-4 2-2 25-3z" fill="#000001"/>
<path transform="translate(591,507)" d="m0 0 10 5 16 11-1 2-9 1-2 1-1-2-8 1-5 1 2-5 2-3v-6l-4-3z" fill="#010102"/>
<path transform="translate(348,20)" d="m0 0h14l22 3 3 2h-35l-26 2-10 1 2-2 15-4z" fill="#0E1216"/>
<path transform="translate(675,208)" d="m0 0 2 4 2 10-2 4-1-2-16 9-21 10-23 9-7 2v-3l27-10 24-11 13-8v-3-8z" fill="#889CAA"/>
<path transform="translate(475,23)" d="m0 0 1 3 5 2 4 4-12-1-20-2-10-3v2l-13-1v-1l18-2z" fill="#0F1318"/>
<path transform="translate(196,85)" d="m0 0h3v2h4v2l-19 12-16 7-2-1 14-14 6 1v-3l9-5z" fill="#0D1015"/>
<path transform="translate(172,188)" d="m0 0 1 3-9 12-4 9-4 8-3 8-10-6 4-1 7-10 12-18h2v-2l-2-1z" fill="#1E2730"/>
<path transform="translate(538,257)" d="m0 0 12 1 16 3 2 2-28 6h-2z" fill="#0A0D11"/>
<path transform="translate(459,32)" d="m0 0 15 1 14 2 5 5 6 7 1 3-6-1-7-3 1-3-4-1-10-4-4-1v-2l-8-1z" fill="#080B0E"/>
<path transform="translate(113,192)" d="m0 0 3 4 7 11-17 10-1-4 7-20z" fill="#080B0E"/>
<path transform="translate(291,402)" d="m0 0h2l-1 5-5 2-1 16-1 3h-5l-2-3v-18l3-2h9z" fill="#92A7B5"/>
<path transform="translate(336,402)" d="m0 0h8l5 3 3 5v16l-3-1-1-15-3-3-5-1-5 3-1 1 1 9 3 3 4 1v3h-6l-4-4-2-4v-7l3-6 3-1z" fill="#000001"/>
<path transform="translate(313,383)" d="m0 0 10 1-1 6h-2v2h-2l-1 4-1-3-4 2v-2l-2-1v-2l-8 1-3-3v3l2 1h-2l-1 3-1-5 2-5 2-1z" fill="#869BA9"/>
<path transform="translate(675,224)" d="m0 0 2 3 2-1 2 17 1 27-1 18-3-1-2-43-1-10z" fill="#26313C"/>
<path transform="translate(433,399)" d="m0 0 4 2 13 1 1 3-6 1-9-1 1 14 3 3 6-2 2-6h2l1 4-3 6-3 2h-7l-5-5z" fill="#030405"/>
<path transform="translate(100,371)" d="m0 0 2 3 3 3 2 7 2 10 8 5-3 1-3-2-1 5-2-2-3-7-9-6-7-3-3-2-1-3-2-2h3l10 6 8 5-2-6-2-8z" fill="#708392"/>
<path transform="translate(449,344)" d="m0 0 1 2h10l36 4 12 2v1h-8l-32-4-13-1-4-1 2 32v13l-2-1-2-34v-10h-12v-2z" fill="#90A4B3"/>
<path transform="translate(525,402)" d="m0 0h8l5 4-2 4-6 6h-2l1-4 3-4v-2l-7 1-3 4v6l4 5 9 1v3h-9l-5-3-2-4v-11z" fill="#010102"/>
<path transform="translate(430,400)" d="m0 0h3l1 21 1 3 3 1h7l4-4 2-4 2 4 1 34h-1l-1-8-1-23-4 4-7 1-6-3-3-4-1-3z" fill="#26313C"/>
<path transform="translate(674,199)" d="m0 0 17 8-2 4-10 8h-2z" fill="#05070A"/>
<path transform="translate(306,698)" d="m0 0 14 1 21 3 43 3h13l2 2-7 2v-2h-24l-41-4-21-3z" fill="#26313C"/>
<path transform="translate(461,378)" d="m0 0h7l4 4v9l-5 5-7 1-2-5h7l3-3v-5l-1-1h-5l-1 5h3v-3h3l-1 5-5 1-4-4 1-6z" fill="#26313C"/>
<path transform="translate(618,285)" d="m0 0h2l7 18 11 33 8 28v6l-2-2-6-23-12-36-7-19z" fill="#899EAC"/>
<path transform="translate(235,424)" d="m0 0h1l-1 12-1 4 9 2v1l-9-1-1 14-1 2v7h-1l-1-5 1-17 1-2-9-1-31-8 2-2 36 9h1l2-13z" fill="#546574"/>
<path transform="translate(778,402)" d="m0 0 2 3 2 15v18l-2 8h-2l-1 3v-45z" fill="#040508"/>
<path transform="translate(266,388)" d="m0 0h5l2 4v14h6v1l-12 1-1-3-3-1 2-1v-14z" fill="#26313C"/>
<path transform="translate(654,401)" d="m0 0 6 2 11 7v3l-12 5h-2l-3-14z" fill="#090B0F"/>
<path transform="translate(59,356)" d="m0 0 5 1 9 10 8 7 2 3-5-2-16-16-4 2-10 15-7 15-5 17h-1l1-11 7-17 10-17z" fill="#798D9D"/>
<path transform="translate(438,17)" d="m0 0h19l9 3v1l-26 1-20 2 4-3z" fill="#0F1317"/>
<path transform="translate(526,368)" d="m0 0h1l-1 12-1 6h-2l-2 16-3 17-4 15-4 17-2 1 4-20 6-27 2-17 2-7 2-4z" fill="#687B8B"/>
<path transform="translate(657,400)" d="m0 0 11 6 6 4 6-2 5-1-1 2-7 2v2l4 2 11 8 14 12 5 6-4-2-12-11-13-10-6-4-6 1-9 4h-2v-2l12-5-3-3-12-7z" fill="#5E7080"/>
<path transform="translate(368,402)" d="m0 0h8l3 2 1 8v14h-2l-1-16-1-4h-6l-3 3-1 16-3 1v-18z" fill="#000001"/>
<path transform="translate(317,401)" d="m0 0 5 5-1 4-8 8-2 4v-2l-5-1-1-7 3-4h2l-2 4 1 5 2 1v-2h-2l1-4 2-2-1-3 5-1z" fill="#222B34"/>
<path transform="translate(103,445)" d="m0 0v3l-5 6h-2l-2 5h-2l-2 5h-2l-2 5-5 9-3 1-1-3 1-3h2l2-5 7-11 4-1 1-5 4-5h4z" fill="#303D49"/>
<path transform="translate(48,469)" d="m0 0 2 1 3 6v2h2l8 11 1 5-5-2-4-5-2 1-5-8-3-10z" fill="#2C3743"/>
<path transform="translate(341,69)" d="m0 0h3l3 3-2 5-5 2-1-3h3v-5l-6 1-1 5-7 1-8-2-1-3-3-1 11 1 1-2z" fill="#0C1014"/>
<path transform="translate(384,440)" d="m0 0h1l1 18h47l1 2-54 1-3-1 1-2 6-1z" fill="#394653"/>
<path transform="translate(263,404)" d="m0 0 3 1-1 12-3 3h-6l-3-4 1-5 2-3 6-1z" fill="#57697A"/>
<path transform="translate(424,387)" d="m0 0h21l3 2h-6l-4 4v7h2v2l-4-1-6-2-1-5-1-4-4-1z" fill="#8397A6"/>
<path transform="translate(529,344)" d="m0 0 1 4-1 8 12 2 24 6v1l-9-1-22-5-6-1-2 15-2 11h-1v-8l4-19-15-2-4-1 1-2 18 3 1-10z" fill="#8DA2B0"/>
<path transform="translate(775,388)" d="m0 0 2 3 2-1 1 8 1 1v5l-3-4-1 3-1 19h-1l-1-8-2 2v-24l1-2h2z" fill="#627687"/>
<path transform="translate(662,166)" d="m0 0 2 1 2 3 2 2 1 7 4 15 1 7h1v7l-3 2-1-5v-9l-1-4h-2l-3-8-2-10z" fill="#505F6C"/>
<path transform="translate(340,101)" d="m0 0v3l-11 19-6-3 3-8 6-5h2l1-3z" fill="#0C0F13"/>
<path transform="translate(659,650)" d="m0 0h2l-2 6-16 10-6 2 2-6 1-2 16-8z" fill="#000001"/>
<path transform="translate(363,49)" d="m0 0 2 1-1 4h12l-1 3-7 1-4 3-2 5h-8l-1-4 10-5-7-2 4-2v-3z" fill="#12171D"/>
<path transform="translate(771,408)" d="m0 0h1l1 6 2-1 1 8h1v21l-2 22h-1v-40l-4-1z" fill="#546473"/>
<path transform="translate(763,450)" d="m0 0h1v8l-2 14-4 9h-2l-2-6 7-21h2z" fill="#3C4A57"/>
<path transform="translate(127,446)" d="m0 0 2 2 9 19 2 4 4 4 6 11-1 4-5-5-6-11-4-10-7-15z" fill="#42505D"/>
<path transform="translate(257,401)" d="m0 0 6 2-3 2-6 3-2 5 1 5 2 3 6 2-3 2-5 1-2-1-3-7v-8l4-6z" fill="#576979"/>
<path transform="translate(460,376)" d="m0 0h7l5 3 1 4-5-4h-7l-3 4 1 6 6 1 2-5h-3v3h-3v-5l1-1h5l2 2-1 7-3 2-7-1v-2h-2l-1-8z" fill="#000001"/>
<path transform="translate(126,154)" d="m0 0 1 2-8 15-6 12h-1l-1-11 9-11z" fill="#0D1115"/>
<path transform="translate(621,99)" d="m0 0 5 2 7 7 6 3 1 4v2l3 1v4h2v5l-4-2-8-12-2 1-2-7-8-6z" fill="#384552"/>
<path transform="translate(602,74)" d="m0 0 14 7v3l2 4 5 2 1 4-5-1-3-2-5-1 2-4h-2l-1-2-3-2-5-5z" fill="#242E38"/>
<path transform="translate(110,403)" d="m0 0 3 4 6 17v3l4 1h-2l6 18-3-3-4-9v-3l-8 6-11 11v-3l17-17-5-12-3-9z" fill="#586979"/>
<path transform="translate(417,402)" d="m0 0h7v3l-8 2-1 14-5 5h-6v-3l7-2 1-13z" fill="#000001"/>
<path transform="translate(665,370)" d="m0 0 1 2-1 5 2-1-2 9-5 16h-4v-2l-3-1 1-4 1 3 2 1 2-9 5-18z" fill="#202933"/>
<path transform="translate(275,408)" d="m0 0h3l1 22v2l1 3h-2l-5-5-3-5 1-6 3-1-1 6h2z" fill="#495866"/>
<path transform="translate(720,386)" d="m0 0 2 1-5 4h-2l-1 3-8 5-9 3-9 5-3-1 9-5h2l1-3 13-7z" fill="#536471"/>
<path transform="translate(148,118)" d="m0 0m-2 1 2 1v2l-10 7-12 11-7 9h-3l2-5 11-12 14-11z" fill="#889DAB"/>
<path transform="translate(376,82)" d="m0 0h3l-1 13-4-2-8-5h-2l-3 4-1-4 2-1 1-3 7 1 5-2z" fill="#0D1116"/>
<path transform="translate(438,408)" d="m0 0h13v4l-5 2-2 6-5-1-1-1z" fill="#000001"/>
<path transform="translate(411,693)" d="m0 0 9 6 7 5-1 2h-13l-2-6z" fill="#000001"/>
<path transform="translate(357,39)" d="m0 0 4 2h5l-1 3-7 2-2 5-5 1v-2h-8l3-3h2l1-3 7-1z" fill="#38444F"/>
<path transform="translate(347,459)" d="m0 0 24 1 11 1v1l-30 3h-5z" fill="#000001"/>
<path transform="translate(655,415)" d="m0 0h2v3l2 1 1 13 4 32v13h-1l-5-41-2-15-6 2 1-3 4-2z" fill="#556676"/>
<path transform="translate(392,213)" d="m0 0h4l-1 4-11 5-2 5-5 2-1-3 3-3-1-4z" fill="#13191F"/>
<path transform="translate(659,444)" d="m0 0h1l3 23 2-3 1 6v18l-2 2-2-6-3-32z" fill="#293540"/>
<path transform="translate(141,296)" d="m0 0 3 1-4 3-23 12-17 11h-2v-2l16-10 14-8z" fill="#889DAB"/>
<path transform="translate(300,474)" d="m0 0 5 1-4 2-2 2-17 5-6 1-1-2 10-5z" fill="#293440"/>
<path transform="translate(260,404)" d="m0 0 3 1-3 3-4 1-2 4 1 4 1 2h8l1-12h2v10l-2 4-4 2-6-1-4-6 1-6 5-5z" fill="#91A6B4"/>
<path transform="translate(442,388)" d="m0 0 8 1-1 6-3 1 1 2-5 1-2 2-2-1-1-9z" fill="#798D9C"/>
<path transform="translate(653,408)" d="m0 0 2 3 1 7-5 4 3 1h-2l-2 7h-2l-2-3h-6l2-2 4-2-6 1 2-2 7-1 2-9z" fill="#232E38"/>
<path transform="translate(315,397)" d="m0 0 2 4-1 3-1-2-11 1-3 6v13h2l1 2 3 1v3l-5-2-4-7v-11l4-6 9-3 4 1z" fill="#92A7B5"/>
<path transform="translate(600,254)" d="m0 0 3 1-6 3-15 4 9 3 4 1v2l-8-1-11-3v-3z" fill="#90A5B3"/>
<path transform="translate(546,419)" d="m0 0 7 1 1 1v6l-1 2-5 1-4-3v-6z" fill="#1A222A"/>
<path transform="translate(675,208)" d="m0 0 2 4 2 10-2 4-1-2-16 9-2-1 5-4 10-6v-3-8z" fill="#8EA3B1"/>
<path transform="translate(248,430)" d="m0 0 2 2 3 9v4l2 1 1 7-2-2-1-3-11-3-6-1-2 11h-1v-9l1-4h6l4-1 7 1-3-9z" fill="#28343F"/>
<path transform="translate(657,571)" d="m0 0h2l1 2v6l-7 7h-2v2l-5 3 2-6 4-5z" fill="#000001"/>
<path transform="translate(370,462)" d="m0 0h10v3l-3 1-30 1v-1h5v-2z" fill="#36434F"/>
<path transform="translate(192,384)" d="m0 0h2v2l-29 14-15 9h-2v-2l16-9 17-9z" fill="#6B7E8E"/>
<path transform="translate(702,312)" d="m0 0 6 1 11 8 12 9 7 6-1 3-8-7-11-9-11-7-5-2z" fill="#879BAA"/>
<path transform="translate(507,273)" d="m0 0h7v2l-25 3-9 1h-11l1-2z" fill="#8FA4B2"/>
<path transform="translate(108,302)" d="m0 0 1 2-5 12 2 1-6 4h-2v2l-4-1 4-4 5-13z" fill="#242E38"/>
<path transform="translate(396,14)" d="m0 0 4 1 6 8-1 3-12-4-1-2z" fill="#0D1115"/>
<path transform="translate(44,325)" d="m0 0h2l6 14 7 12h4l8-6-2 4-7 6-4-1-9-15-5-11z" fill="#869AA9"/>
<path transform="translate(55,486)" d="m0 0 7 7v2l3 1 3 4-1 8-2 1-5-10-4-9z" fill="#000001"/>
<path transform="translate(224,440)" d="m0 0 8 1-1 19 1 5v11h-2v-4h-2v-12l2-18-6-1z" fill="#2D3944"/>
<path transform="translate(245,408)" d="m0 0h1l2 13 7 23 4 2h-3l-1 3v-3l-7-1v-1h5l-7-21-4-2-1-3 3-2z" fill="#586979"/>
<path transform="translate(675,224)" d="m0 0 2 3 2-1 1 6v11l-1 5h-2l-2-14z" fill="#232C35"/>
<path transform="translate(310,405)" d="m0 0h2l1 6-3 2-1 3h2v2l-4-2 1-5 2-3-4 4v7l5 1v2l-6-1-2-4v-6l2-4z" fill="#91A6B4"/>
<path transform="translate(173,107)" d="m0 0 2 1-12 9-13 11v-3l8-10z" fill="#192027"/>
<path transform="translate(157,191)" d="m0 0 2 1-3 3-25 11-2-1 3-3 20-9z" fill="#8BA0AE"/>
<path transform="translate(256,449)" d="m0 0 2 3v2h2l7 18-1 3-4-1-5-19z" fill="#394652"/>
<path transform="translate(93,329)" d="m0 0h1l1 14-2 4-4 1-1 7-2 1 2-10 4-12z" fill="#242E38"/>
<path transform="translate(284,405)" d="m0 0 5 1-4 2-1 9v7l-1 2h-3v-16l2-4z" fill="#536473"/>
<path transform="translate(261,423)" d="m0 0h7l4 4-4-1-7 3h-5l-6-2-1-3 6 1z" fill="#232D37"/>
<path transform="translate(711,441)" d="m0 0 7 6 4 2 8 11 2 5-5-5-2-3h-3l-2-4h-2l-5-8z" fill="#27323D"/>
<path transform="translate(751,450)" d="m0 0 1 3-2 5h-2l-1 7-4 8-3-1 1-5 5-8 2-8 2 1z" fill="#2A3641"/>
<path transform="translate(480,23)" d="m0 0h11l18 2 4 2h-6l12 3-4 1-14-3v-2l-22-1z" fill="#5B6A76"/>
<path transform="translate(618,285)" d="m0 0h2l7 18 5 15h-3l-9-26-2-4z" fill="#889CAB"/>
<path transform="translate(81,549)" d="m0 0 1 2h2l4 14v7l2 5-1 3-5-12-2-12z" fill="#1A222A"/>
<path transform="translate(520,411)" d="m0 0h1l2 8 3 3 9 1v3h-9l-5-3-2-4v-7z" fill="#000001"/>
<path transform="translate(151,216)" d="m0 0h2l1 2h1l-1 9h-3l-8-5 4-1z" fill="#1C242C"/>
<path transform="translate(311,176)" d="m0 0 5 2 1 11-3 2-5-10z" fill="#11171C"/>
<path transform="translate(777,423)" d="m0 0h1v23l1 4-1 4 1 3-2 5h-2l1-20z" fill="#26313C"/>
<path transform="translate(626,276)" d="m0 0 6 1 24 9v2l-6-1-25-9z" fill="#8CA0AF"/>
<path transform="translate(347,55)" d="m0 0h4l-1 7-4 2-5-1-2-4h4l1-3z" fill="#8EA3B1"/>
<path transform="translate(567,49)" d="m0 0 8 2 12 8 3 3-2 1-12-7-4-2-4-1z" fill="#495763"/>
<path transform="translate(684,634)" d="m0 0 3 1-3 1v2l-9 7-10 7v-3l5-5 13-9z" fill="#000001"/>
<path transform="translate(100,371)" d="m0 0 2 3 3 3 2 7-1 8-5-2-3-3 6 2-2-6-2-8z" fill="#4E5E6B"/>
<path transform="translate(505,61)" d="m0 0 3 1 4 9h-8l-2-3 1-5z" fill="#0B0F13"/>
<path transform="translate(754,477)" d="m0 0 2 1 1 5-7 11h-2l2-10z" fill="#2A3541"/>
<path transform="translate(390,406)" d="m0 0 4 1 1 1v18l-3 1-1-18z" fill="#000001"/>
<path transform="translate(462,402)" d="m0 0h2l1 6v15l-1 3h-2z" fill="#000001"/>
<path transform="translate(114,281)" d="m0 0h1l-1 7-6 15-3 3-1-3 6-14z" fill="#181F27"/>
<path transform="translate(301,410)" d="m0 0h2l2 11 6 1-4 5v-2l-4-1v-2h-2l-1-3v-8z" fill="#526373"/>
<path transform="translate(254,400)" d="m0 0 4 1-2 3h-3l-4 6v8l2 6-3-1-2-5v-8l3-6z" fill="#92A7B5"/>
<path transform="translate(745,366)" d="m0 0v3l-7 7-12 9-4 1 5-5 5-4 2-3 3-1 2-3 2 1v-2z" fill="#768999"/>
<path transform="translate(491,248)" d="m0 0h8l23 3-2 3-29-4z" fill="#8CA1AF"/>
<path transform="translate(424,389)" d="m0 0 5 1 2 8 2 2-16 1-1-4h13l-2-3v-4z" fill="#35424F"/>
<path transform="translate(101,321)" d="m0 0 2 1-2 3 1 2h-3l-1 12 1 13h-1l-3-20 1-7z" fill="#2A3540"/>
<path transform="translate(517,28)" d="m0 0 8 1 17 6-3 1-4-1-3 1-13-4 4-1-6-2z" fill="#738592"/>
<path transform="translate(526,368)" d="m0 0h1l-1 12-1 6h-2l-1 9h-2l-1 3 2-16 2-1z" fill="#4A5966"/>
<path transform="translate(459,32)" d="m0 0 15 1 8 1-4 3 1 2-9-2v-2l-8-1z" fill="#151B21"/>
<path transform="translate(377,153)" d="m0 0h5l1 7-5 5h-1z" fill="#141A20"/>
<path transform="translate(554,41)" d="m0 0 6 2 11 6-2 1-9-2-10-5z" fill="#667683"/>
<path transform="translate(267,408)" d="m0 0h3v11l-3 4h-6l4-2z" fill="#536473"/>
<path transform="translate(288,399)" d="m0 0 4 2-2 5h-10l2-4 2-2z" fill="#1F2830"/>
<path transform="translate(250,414)" d="m0 0 3 4 2 3 6 2-3 2-5 1-2-1-3-8z" fill="#586978"/>
<path transform="translate(647,426)" d="m0 0 2 4-1 4-2 1-4 9-2-1 3-11h2l-1-3h2z" fill="#1B222A"/>
<path transform="translate(646,364)" d="m0 0h1l4 17-1 3-1-2-2 1-3-12 1-3z" fill="#455360"/>
<path transform="translate(379,347)" d="m0 0h1l1 22 8 1 1 4 5 1-3 1-4-2v-2l-8-2-1-7z" fill="#323E4A"/>
<path transform="translate(766,474)" d="m0 0 3 1-2 5-4 5-4 1 1-5z" fill="#303C48"/>
<path transform="translate(84,377)" d="m0 0 11 6 3 4h-6l-6-4-1-3-2-2z" fill="#51606D"/>
<path transform="translate(357,343)" d="m0 0 3 3-2 1-29 3h-8v-1l23-3 13-1z" fill="#323F4B"/>
<path transform="translate(161,205)" d="m0 0 1 3-6 12-4-2 1-5 3-1z" fill="#242E38"/>
<path transform="translate(35,432)" d="m0 0 2 2 3 12-1 4h-3l-2-7v-5l1-2z" fill="#293540"/>
<path transform="translate(341,69)" d="m0 0h3l3 3-2 5-5 2-1-3h3v-5l-5 1-5-1v-1z" fill="#202831"/>
<path transform="translate(268,390)" d="m0 0 2 1v16h-3v-15z" fill="#000001"/>
<path transform="translate(631,387)" d="m0 0 6 1 10 5h4v3l-5-1-11-4-4-2z" fill="#44525F"/>
<path transform="translate(356,364)" d="m0 0m-7 1h7l3 2-9 2-2 2h-7l3-4z" fill="#8498A7"/>
<path transform="translate(306,73)" d="m0 0h9l-3 1-2 4-6-1h-5l-1-2z" fill="#1C242B"/>
<path transform="translate(367,69)" d="m0 0 3 1-1 4-5 6h-4l2-4z" fill="#10151A"/>
<path transform="translate(447,397)" d="m0 0h4l1 3-2 3-10-1 2-4z" fill="#26313B"/>
<path transform="translate(628,473)" d="m0 0 1 3-11 20-2-1 5-10-1-2 3-3 4-5z" fill="#242E39"/>
<path transform="translate(326,468)" d="m0 0h2v2h-5v2l-14 3h-3v-2l16-4z" fill="#374450"/>
<path transform="translate(372,226)" d="m0 0h2v5l-2 2h-6l-2-1v-3l7-2z" fill="#181E25"/>
<path transform="translate(149,120)" d="m0 0 2 1-5 5-5 2-1 3-3 1v-3l9-7zm-15 11 2 1-5 5v-3z" fill="#1B222A"/>
<path transform="translate(621,99)" d="m0 0 5 2 10 10-1 2-4 1-2-7-8-6z" fill="#26303A"/>
<path transform="translate(675,208)" d="m0 0 2 4 2 10-2 4v-5l-4-2v-8z" fill="#495765"/>
<path transform="translate(355,68)" d="m0 0h9l-2 4-6 3v-3h-2z" fill="#171D23"/>
<path transform="translate(300,474)" d="m0 0 5 1-4 2-2 2-11 2-4-1 10-2v-2z" fill="#3C4956"/>
<path transform="translate(656,287)" d="m0 0 9 3 11 6-3 1-18-8z" fill="#889DAB"/>
<path transform="translate(662,166)" d="m0 0 2 1 2 3 2 2v10l-4-3-2-8z" fill="#3F4B55"/>
<path transform="translate(103,445)" d="m0 0v3l-5 6-5 2 1-5 4-5h4z" fill="#33404C"/>
<path transform="translate(275,408)" d="m0 0h3v13l-3 1z" fill="#556676"/>
<path transform="translate(631,468)" d="m0 0 1 2-2 3h-2l-2 5-3 4-1-3 4-9z" fill="#1A222A"/>
<path transform="translate(91,347)" d="m0 0 1 3-3 10-3 1-1-4 3-5 1-4z" fill="#1A222A"/>
<path transform="translate(638,453)" d="m0 0 1 2-5 10-1 3-2-1-2-2 4-7h2z" fill="#232D37"/>
<path transform="translate(523,386)" d="m0 0h1l-1 12-1 3h3l-2 4-3 2 1-12z" fill="#2A3642"/>
<path transform="translate(649,421)" d="m0 0 5 1-2 1-2 7h-2l-2-3h-6l2-2 6-2z" fill="#222B35"/>
<path transform="translate(654,401)" d="m0 0 6 2-2 5 1 10h-2l-3-14z" fill="#252F3A"/>
<path transform="translate(440,402)" d="m0 0h10l1 3-6 1-6-1z" fill="#000001"/>
<path transform="translate(92,225)" d="m0 0m-1 1m-2 1 2 1-4 5-8 6h-3l5-6z" fill="#8BA0AE"/>
<path transform="translate(308,408)" d="m0 0h2l-2 4 1 5 2 1 1-2v6l-1-2-5-1-1-7z" fill="#4D5D6C"/>
<path transform="translate(440,470)" d="m0 0 5 5-2 4-4-2-1-4z" fill="#000001"/>
<path transform="translate(270,408)" d="m0 0h3l-1 11-2 5-3-1 2-4z" fill="#92A7B5"/>
<path transform="translate(212,392)" d="m0 0h1l1 7 2 2-6-1-3-5 1-2z" fill="#6D8191"/>
<path transform="translate(437,391)" d="m0 0 7 1-3 3 2 2-3 4-2-1z" fill="#5A6C7E"/>
<path transform="translate(768,384)" d="m0 0 4 2v10h-1l-1-8-3 14h-1l1-12z" fill="#313E4A"/>
<path transform="translate(120,208)" d="m0 0 2 1-4 4-10 5 1-4z" fill="#869AA9"/>
<path transform="translate(367,153)" d="m0 0h2v2l4 1-1-3h2v10l-1-2-3-1-3-4z" fill="#171E24"/>
<path transform="translate(311,423)" d="m0 0h10l1 3h-13z" fill="#000001"/>
<path transform="translate(702,312)" d="m0 0 6 1 9 6-1 3-9-6-5-2z" fill="#748796"/>
<path transform="translate(566,260)" d="m0 0 6 1v3l-12 3 1-3 5-2z" fill="#889CAB"/>
<path transform="translate(428,243)" d="m0 0 14 1v2h-18z" fill="#708291"/>
<path transform="translate(349,47)" d="m0 0h8l-1 4-5 1v-2h-6z" fill="#889CAA"/>
<path transform="translate(328,23)" d="m0 0 3 1 5 1v1l-20 2 2-2z" fill="#1F272F"/>
<path transform="translate(751,450)" d="m0 0 1 3-2 5h-2l-2 6-2 2 1-5 3-10 2 1z" fill="#3B4955"/>
<path transform="translate(771,408)" d="m0 0h1l1 6h1v9h-4z" fill="#2B3743"/>
<path transform="translate(650,149)" d="m0 0h8l1 7-5-2z" fill="#35414C"/>
<path transform="translate(423,84)" d="m0 0 4 2 5 3-1 4-3-1v-2l-4-1z" fill="#141A20"/>
<path transform="translate(376,32)" d="m0 0h8l-3 2h-2v2l3 1-2 1-5-3h-6l-1-2z" fill="#263039"/>
<path transform="translate(456,664)" d="m0 0h1l1 8-1 8-2 1v-14z" fill="#000001"/>
<path transform="translate(758,468)" d="m0 0 2 2-1 4-2 7-3-4 2-5z" fill="#404E5B"/>
<path transform="translate(245,408)" d="m0 0h1l2 15-6-2-1-3 3-2z" fill="#516171"/>
<path transform="translate(260,404)" d="m0 0 3 1-3 3-4 1-2 4h-2l1-5z" fill="#92A7B5"/>
<path transform="translate(667,364)" d="m0 0 2 4-2 8-3 4 1-12z" fill="#13191F"/>
<path transform="translate(507,273)" d="m0 0h7v2l-16 2v-2z" fill="#8A9FAE"/>
<path transform="translate(570,260)" d="m0 0h8l1 5h-9z" fill="#2D3844"/>
<path transform="translate(642,125)" d="m0 0h3l4 5v3l-2 3-5-9z" fill="#495763"/>
<path transform="translate(762,461)" d="m0 0 1 4-1 8-4 8-1-3 2-5 1-7z" fill="#26313C"/>
<path transform="translate(711,441)" d="m0 0 7 6 5 6-1 2-4-2-5-8z" fill="#485765"/>
<path transform="translate(389,401)" d="m0 0h8l3 1v2l-8 1-3-3z" fill="#788B9A"/>
<path transform="translate(65,242)" d="m0 0 4 2-6 8-3 2 2-6z" fill="#1F2730"/>
<path transform="translate(148,118)" d="m0 0m-2 1 2 1v2l-10 7-2 1 2-4 5-5z" fill="#8A9FAD"/>
<path transform="translate(70,506)" d="m0 0h1l2 16-3-4-1-2v-7z" fill="#010102"/>
<path transform="translate(734,483)" d="m0 0h3v3l-3 5-3 1v-5z" fill="#2B3743"/>
<path transform="translate(138,472)" d="m0 0h3l3 3 2 3-1 4-5-5z" fill="#333F4B"/>
<path transform="translate(301,410)" d="m0 0h2l2 11-5-2v-8z" fill="#4E5D6C"/>
<path transform="translate(472,395)" d="m0 0 9 1-3 3h-6z" fill="#627586"/>
<path transform="translate(560,264)" d="m0 0m-5 1h5v2l-15 3 1-3z" fill="#8EA3B1"/>
<path transform="translate(402,245)" d="m0 0h22v1l-18 1-3 3z" fill="#26313B"/>
<path transform="translate(154,218)" d="m0 0h1l-1 9h-3l-2-1 2-4z" fill="#0C0F13"/>
<path transform="translate(509,176)" d="m0 0 5 1 1 5-6-1z" fill="#8CA1AF"/>
<path transform="translate(191,159)" d="m0 0 2 2v7l-2 2-7-1 3-2h3v-7z" fill="#29343F"/>
<path transform="translate(356,50)" d="m0 0 6 1-2 3-5 2v-2l-4-2z" fill="#48555F"/>
<path transform="translate(347,436)" d="m0 0 2 1-1 8-2 7-1-4 1-7z" fill="#546474"/>
<path transform="translate(772,408)" d="m0 0 4 2v12h-1l-1-8-2 2z" fill="#687A8A"/>
<path transform="translate(416,397)" d="m0 0h6l3 3-1 1h-7z" fill="#677887"/>
<path transform="translate(105,386)" d="m0 0 2 2 1 8-11-7-1-2 5 2 5 3z" fill="#8499A8"/>
<path transform="translate(745,366)" d="m0 0v3l-7 7-5 1 1-3 3-1 2-3 2 1v-2z" fill="#6A7C8A"/>
<path transform="translate(141,296)" d="m0 0 3 1-4 3-9 4v-3z" fill="#7A8E9E"/>
<path transform="translate(127,256)" d="m0 0 2 4-1 3-4 2-1 2-2-1z" fill="#1D252E"/>
<path transform="translate(600,254)" d="m0 0 3 1-6 3-8 2v-3z" fill="#889CAB"/>
<path transform="translate(519,458)" d="m0 0 3 1 1 4-2 2h-4l1-6z" fill="#2F3B47"/>
<path transform="translate(671,198)" d="m0 0h2l2 3v7l-3 2-1-5z" fill="#3D4A57"/>
<path transform="translate(206,89)" d="m0 0h4v3l-9 3-3-1z" fill="#1D252D"/>
<path transform="translate(357,39)" d="m0 0 4 2h5l-1 3-6 1v-2h-3z" fill="#738593"/>
<path transform="translate(368,37)" d="m0 0 2 4h-2l-1 2-2-1h-4l1-3z" fill="#212A33"/>
<path transform="translate(135,416)" d="m0 0 2 1-13 10-2-1 11-9z" fill="#5B6E7F"/>
<path transform="translate(442,388)" d="m0 0 8 1-1 3h-3-6z" fill="#738797"/>
<path transform="translate(102,380)" d="m0 0 2 2 2 10-5-2-3-3 6 2-2-6z" fill="#313E4A"/>
<path transform="translate(691,304)" d="m0 0 5 2 9 6-2 1-12-7z" fill="#8BA0AF"/>
<path transform="translate(145,229)" d="m0 0 1 3-4 6-2-1-2 2 1-5 4-4 1 1z" fill="#212B35"/>
<path transform="translate(160,203)" d="m0 0h2l-2 5-5 5-1-2z" fill="#171D24"/>
<path transform="translate(126,154)" d="m0 0 1 2-5 9h-3l-2-1 7-7z" fill="#1D242C"/>
<path transform="translate(643,282)" d="m0 0 10 3 3 1v2l-6-1-7-3z" fill="#8DA2B0"/>
<path transform="translate(138,199)" d="m0 0 2 1v2l-9 4-2-1 3-3z" fill="#8296A5"/>
<path transform="translate(544,38)" d="m0 0h7l4 4-2 1-5-1v-2z" fill="#45515B"/>
<path transform="translate(403,34)" d="m0 0h2v3h2v2l-6 1-2-3z" fill="#151B21"/>
<path transform="translate(477,28)" d="m0 0 5 1 3 3-12-1 1-2z" fill="#1B232A"/>
<path transform="translate(249,408)" d="m0 0h4l-2 6-3 3v-7z" fill="#4E5E6D"/>
<path transform="translate(456,169)" d="m0 0 8 1 2 2-1 1-7-1-2-1z" fill="#8B9FAE"/>
<path transform="translate(639,118)" d="m0 0h2l1 4h3v5l-4-2-2-3z" fill="#27303A"/>
</svg>
