<?xml version="1.0" standalone="no"?>
<!DOCTYPE svg PUBLIC "-//W3C//DTD SVG 20010904//EN"
 "http://www.w3.org/TR/2001/REC-SVG-20010904/DTD/svg10.dtd">
<svg version="1.0" xmlns="http://www.w3.org/2000/svg"
 width="1650.000000pt" height="943.000000pt" viewBox="0 0 1650.000000 943.000000"
 preserveAspectRatio="xMidYMid meet">

<g transform="translate(0.000000,943.000000) scale(0.100000,-0.100000)"
fill="#000000" stroke="none">
<path d="M0 9175 l0 -255 8250 0 8250 0 0 255 0 255 -8250 0 -8250 0 0 -255z
m13120 73 c0 -39 1 -40 18 -25 29 26 51 21 25 -5 l-22 -21 20 -29 c17 -23 18
-28 5 -28 -8 0 -22 10 -30 22 l-16 22 0 -22 c0 -12 -4 -22 -10 -22 -6 0 -10
32 -10 75 0 43 4 75 10 75 6 0 10 -19 10 -42z m-10600 12 c0 -13 -7 -20 -19
-20 -22 0 -35 15 -26 30 12 19 45 11 45 -10z m441 -32 c0 -51 1 -52 16 -30 9
12 26 22 39 22 29 0 30 -5 4 -37 l-20 -26 25 -33 26 -34 -28 0 c-20 0 -33 8
-45 28 l-17 27 -1 -27 c0 -21 -5 -28 -20 -28 -19 0 -20 7 -20 95 0 88 1 95 20
95 17 0 20 -7 21 -52z m8509 22 c0 -28 3 -30 35 -30 32 0 35 2 35 30 0 17 5
30 10 30 6 0 10 -30 10 -70 0 -40 -4 -70 -10 -70 -5 0 -10 14 -10 30 0 28 -3
30 -35 30 -32 0 -35 -2 -35 -30 0 -16 -4 -30 -10 -30 -6 0 -10 30 -10 70 0 40
4 70 10 70 6 0 10 -13 10 -30z m940 0 l13 -31 18 31 c27 44 43 37 19 -10 -11
-21 -20 -53 -20 -70 0 -20 -5 -30 -15 -30 -9 0 -15 9 -15 25 0 14 -9 43 -20
65 -24 47 -24 50 -6 50 7 0 19 -14 26 -30z m510 20 c0 -5 -9 -10 -20 -10 -18
0 -20 -7 -20 -60 0 -33 -4 -60 -10 -60 -6 0 -10 27 -10 60 0 53 -2 60 -20 60
-11 0 -20 5 -20 10 0 6 23 10 50 10 28 0 50 -4 50 -10z m-10240 -15 c0 -9 -9
-15 -25 -15 -24 0 -25 -2 -25 -75 0 -73 -1 -75 -25 -75 -24 0 -25 2 -25 75 0
68 -2 75 -20 75 -11 0 -20 7 -20 15 0 12 14 15 70 15 56 0 70 -3 70 -15z
m9004 -47 c8 -22 6 -32 -9 -48 -44 -49 -114 -4 -87 56 10 21 18 25 49 22 31
-2 39 -8 47 -30z m164 -20 c2 -29 -1 -48 -7 -48 -6 0 -11 18 -11 41 0 33 -3
40 -17 37 -13 -2 -19 -14 -21 -41 -4 -50 -22 -48 -22 3 0 33 -3 40 -20 40 -17
0 -20 -7 -20 -40 0 -22 -4 -40 -10 -40 -5 0 -10 23 -10 50 l0 50 68 -2 67 -3
3 -47z m110 20 c3 -26 1 -28 -33 -28 -22 0 -34 -4 -30 -10 3 -5 20 -10 36 -10
18 0 28 -4 24 -10 -9 -14 -58 -13 -73 2 -15 15 -15 43 -1 69 8 15 19 19 42 17
27 -2 33 -8 35 -30z m608 7 c15 -23 15 -27 0 -50 -28 -42 -96 -29 -96 18 0 58
65 80 96 32z m46 -12 c2 -30 7 -38 23 -38 16 0 21 8 23 38 5 54 22 45 22 -11
l0 -49 -37 -1 c-20 -1 -41 4 -45 11 -11 17 -10 87 1 87 6 0 11 -17 13 -37z
m141 27 c-19 -8 -23 -17 -23 -50 0 -22 -4 -40 -10 -40 -5 0 -10 23 -10 50 0
50 0 50 33 49 29 0 30 -1 10 -9z m235 -41 l3 -46 -38 -1 c-20 -1 -40 4 -44 10
-12 20 10 48 37 48 15 0 23 4 18 11 -3 6 -17 8 -30 5 -13 -4 -24 -3 -24 2 0
16 14 23 45 20 28 -3 30 -6 33 -49z m92 41 c0 -5 -12 -10 -27 -10 l-28 0 29
-23 c37 -30 30 -57 -14 -57 -38 0 -40 17 -2 22 l27 4 -27 14 c-26 12 -36 38
-21 53 10 11 63 8 63 -3z m180 0 c0 -5 -9 -10 -20 -10 -11 0 -20 -4 -20 -10 0
-5 4 -10 9 -10 5 0 17 -7 26 -16 12 -12 13 -19 4 -30 -13 -16 -69 -19 -69 -4
0 6 11 10 25 10 14 0 25 5 25 10 0 6 -6 10 -14 10 -7 0 -19 7 -26 15 -10 12
-10 18 0 30 14 17 60 21 60 5z m-10740 -75 c0 -63 -1 -65 -25 -65 -24 0 -25 2
-25 65 0 63 1 65 25 65 24 0 25 -2 25 -65z m248 53 c7 -7 12 -36 12 -65 l0
-52 -51 2 c-37 1 -55 7 -63 20 -14 21 2 50 30 55 10 2 24 9 29 14 7 7 1 9 -17
4 -24 -5 -28 -3 -28 14 0 17 7 20 38 20 21 0 43 -5 50 -12z m122 -9 c0 -16 -4
-19 -20 -14 -27 9 -25 -8 2 -20 52 -23 28 -75 -33 -75 -32 0 -39 3 -39 20 0
17 5 19 25 14 31 -8 33 8 3 21 -49 22 -29 75 28 75 28 0 34 -4 34 -21z"/>
<path d="M11606 9205 c-9 -25 4 -45 30 -45 20 0 24 5 24 30 0 25 -4 30 -24 30
-13 0 -26 -7 -30 -15z"/>
<path d="M11895 9210 c-4 -6 5 -10 19 -10 14 0 26 5 26 10 0 6 -9 10 -19 10
-11 0 -23 -4 -26 -10z"/>
<path d="M12497 9206 c-10 -26 4 -47 27 -44 15 2 21 10 21 28 0 29 -38 41 -48
16z"/>
<path d="M12930 9170 c0 -5 6 -10 14 -10 8 0 18 5 21 10 3 6 -3 10 -14 10 -12
0 -21 -4 -21 -10z"/>
<path d="M2710 9134 c0 -9 5 -14 12 -12 18 6 21 28 4 28 -9 0 -16 -7 -16 -16z"/>
<path d="M4980 8315 c-10 -12 -10 -18 0 -30 20 -25 55 -15 55 15 0 30 -35 40
-55 15z"/>
<path d="M5640 8185 l0 -145 29 0 c28 0 30 3 33 42 l3 42 28 -42 c23 -36 32
-42 63 -42 l35 0 -36 46 c-19 26 -35 50 -35 54 0 4 14 24 30 45 17 21 30 39
30 41 0 2 -15 4 -34 4 -29 0 -38 -6 -60 -42 l-25 -43 -1 93 0 92 -30 0 -30 0
0 -145z"/>
<path d="M9140 8268 c0 -48 -3 -59 -12 -50 -17 17 -59 15 -85 -3 -25 -18 -44
-74 -36 -107 14 -55 67 -83 114 -58 13 7 19 7 19 0 0 -5 14 -10 30 -10 l30 0
0 145 0 145 -30 0 -30 0 0 -62z m0 -133 c0 -44 -27 -61 -58 -39 -27 19 -28 48
-2 74 29 29 60 11 60 -35z"/>
<path d="M5060 8285 c0 -22 4 -25 40 -25 l40 0 0 -110 0 -110 30 0 30 0 0 110
0 110 40 0 c36 0 40 3 40 25 l0 25 -110 0 -110 0 0 -25z"/>
<path d="M6210 8175 l0 -135 30 0 29 0 3 88 3 87 30 -87 c27 -81 31 -88 55
-88 24 0 28 7 55 91 16 50 33 93 37 95 4 3 8 -38 8 -90 l0 -96 30 0 30 0 0
136 0 135 -47 -3 -46 -3 -32 -95 c-27 -81 -33 -91 -39 -70 -5 14 -19 58 -33
98 l-26 72 -43 0 -44 0 0 -135z"/>
<path d="M8680 8280 c-16 -4 -26 -14 -28 -28 -2 -12 -10 -22 -18 -22 -8 0 -14
-9 -14 -20 0 -11 6 -20 14 -20 10 0 15 -18 18 -61 5 -70 23 -92 73 -87 39 4
50 45 13 50 -20 3 -23 9 -23 48 0 39 3 45 23 48 32 5 30 42 -2 42 -20 0 -25 6
-28 28 -3 24 -6 27 -28 22z"/>
<path d="M9983 8280 c-13 -6 -23 -18 -23 -30 0 -11 -7 -20 -15 -20 -8 0 -15
-9 -15 -20 0 -11 7 -20 15 -20 12 0 15 -13 15 -58 0 -68 18 -92 68 -92 27 0
32 4 32 25 0 18 -5 25 -20 25 -17 0 -20 7 -20 50 0 43 3 50 20 50 13 0 20 7
20 20 0 13 -7 20 -20 20 -16 0 -20 7 -20 30 0 32 -3 34 -37 20z"/>
<path d="M4980 8135 c0 -95 0 -95 25 -95 25 0 25 0 25 95 0 95 0 95 -25 95
-25 0 -25 0 -25 -95z"/>
<path d="M5298 8223 c-10 -2 -18 -13 -18 -23 0 -16 7 -18 41 -17 55 3 62 -19
9 -26 -53 -7 -70 -22 -70 -63 0 -44 35 -64 81 -47 16 6 29 7 29 2 0 -5 14 -9
30 -9 l30 0 0 70 c0 62 -3 74 -25 95 -23 24 -61 30 -107 18z m72 -112 c0 -20
-32 -37 -50 -26 -16 10 -12 33 8 38 34 9 42 7 42 -12z"/>
<path d="M5493 8220 c-27 -11 -40 -54 -22 -76 7 -8 28 -22 46 -29 19 -8 32
-19 28 -25 -8 -13 -41 -13 -66 0 -16 9 -19 7 -19 -14 0 -52 111 -49 140 4 15
28 -3 57 -46 75 -44 18 -36 40 13 32 31 -5 34 -4 31 16 -2 18 -10 22 -43 24
-22 1 -50 -2 -62 -7z"/>
<path d="M6588 8223 c-11 -3 -18 -14 -18 -29 0 -22 2 -23 20 -14 25 13 72 9
77 -6 2 -7 -14 -14 -37 -17 -48 -6 -80 -31 -80 -62 0 -44 67 -73 99 -42 11 10
14 10 18 0 3 -7 16 -13 29 -13 23 0 24 2 24 75 0 62 -4 79 -20 95 -19 19 -67
25 -112 13z m82 -107 c0 -20 -27 -39 -45 -32 -18 7 -20 32 -2 39 24 10 47 7
47 -7z"/>
<path d="M6770 8135 c0 -95 0 -95 25 -95 24 0 25 3 25 53 0 60 17 91 46 85 16
-3 19 -13 22 -71 3 -67 3 -67 32 -67 l30 0 0 75 c0 62 -4 79 -20 95 -24 24
-57 26 -88 4 -20 -14 -22 -14 -22 0 0 10 -9 16 -25 16 -25 0 -25 0 -25 -95z"/>
<path d="M7018 8223 c-11 -3 -18 -14 -18 -29 0 -21 3 -23 19 -14 29 15 68 12
75 -5 4 -11 -1 -15 -19 -15 -30 0 -77 -18 -87 -33 -13 -21 -9 -53 10 -70 22
-20 63 -22 81 -4 11 10 14 10 18 0 3 -7 16 -13 29 -13 23 0 24 2 24 75 0 62
-4 79 -20 95 -19 19 -67 25 -112 13z m82 -99 c0 -18 -23 -44 -39 -44 -25 0
-34 27 -13 39 19 11 52 14 52 5z"/>
<path d="M7223 8215 c-25 -18 -44 -74 -36 -107 14 -55 67 -83 114 -58 30 17
25 -26 -7 -46 -20 -14 -32 -15 -60 -6 -32 9 -34 9 -34 -13 0 -59 140 -43 168
20 7 14 12 70 12 125 l0 100 -30 0 c-17 0 -30 -5 -30 -12 0 -9 -3 -9 -12 0
-17 17 -59 15 -85 -3z m97 -80 c0 -44 -27 -61 -58 -39 -27 19 -28 48 -2 74 29
29 60 11 60 -35z"/>
<path d="M7451 8204 c-25 -20 -31 -34 -31 -64 0 -52 8 -68 41 -85 51 -27 119
-17 119 17 0 16 -5 18 -35 12 -22 -4 -41 -2 -50 6 -27 22 -16 30 45 30 l60 0
0 30 c0 73 -89 105 -149 54z m87 -31 c2 -9 -7 -13 -27 -13 -30 0 -39 9 -24 24
11 10 46 3 51 -11z"/>
<path d="M7710 8228 c0 -2 16 -43 35 -91 19 -48 35 -93 35 -101 0 -21 -28 -46
-45 -40 -11 5 -15 -1 -15 -20 0 -21 5 -26 26 -26 36 0 61 16 78 49 17 32 86
212 86 224 0 4 -12 7 -28 7 -25 0 -29 -5 -46 -67 l-20 -67 -21 64 c-20 60 -24
65 -53 68 -18 2 -32 2 -32 0z"/>
<path d="M7970 8217 c-52 -26 -64 -112 -21 -151 28 -26 91 -31 129 -12 41 21
61 80 41 122 -16 33 -52 54 -94 54 -16 0 -41 -6 -55 -13z m96 -63 c8 -30 0
-50 -24 -63 -26 -14 -62 12 -62 44 0 51 74 67 86 19z"/>
<path d="M8160 8152 c0 -64 4 -82 18 -95 21 -19 54 -22 83 -7 13 7 19 7 19 0
0 -5 14 -10 30 -10 l30 0 0 95 0 95 -30 0 -30 0 0 -65 c0 -51 -4 -66 -17 -73
-34 -18 -43 -3 -43 69 l0 69 -30 0 -30 0 0 -78z"/>
<path d="M8390 8135 l0 -95 30 0 c30 0 30 0 30 58 0 60 11 82 42 82 13 0 18 8
18 25 0 27 -10 31 -41 15 -13 -7 -19 -7 -19 0 0 5 -13 10 -30 10 l-30 0 0 -95z"/>
<path d="M8818 8215 c-61 -34 -55 -137 11 -165 39 -16 98 -7 124 18 10 11 21
38 24 60 5 36 2 45 -25 72 -35 34 -87 40 -134 15z m98 -60 c14 -56 -30 -91
-67 -54 -10 10 -19 26 -19 34 0 8 9 24 19 34 25 25 59 17 67 -14z"/>
<path d="M9278 8215 c-61 -34 -55 -137 11 -165 39 -16 98 -7 124 18 10 11 21
38 24 60 5 36 2 45 -25 72 -35 34 -87 40 -134 15z m98 -60 c14 -56 -30 -91
-67 -54 -10 10 -19 26 -19 34 0 8 9 24 19 34 25 25 59 17 67 -14z"/>
<path d="M9484 8206 c-28 -24 -28 -26 -14 -53 9 -16 29 -31 48 -37 17 -5 32
-15 32 -22 0 -17 -43 -19 -71 -4 -16 9 -19 7 -19 -14 0 -55 132 -46 146 11 8
29 -9 50 -53 68 -44 18 -34 39 14 32 31 -5 34 -4 31 16 -2 18 -11 23 -44 25
-33 2 -48 -2 -70 -22z"/>
<path d="M9768 8223 c-11 -3 -18 -14 -18 -29 0 -21 3 -23 19 -14 29 15 68 12
75 -5 4 -11 -1 -15 -19 -15 -30 0 -77 -18 -87 -33 -13 -21 -9 -53 10 -70 22
-20 63 -22 81 -4 11 10 14 10 18 0 3 -7 16 -13 29 -13 23 0 24 2 24 75 0 62
-4 79 -20 95 -19 19 -67 25 -112 13z m82 -99 c0 -18 -23 -44 -39 -44 -25 0
-34 27 -13 39 19 11 52 14 52 5z"/>
<path d="M10228 8215 c-61 -34 -55 -137 11 -165 39 -16 98 -7 124 18 10 11 21
38 24 60 5 36 2 45 -25 72 -35 34 -87 40 -134 15z m98 -60 c14 -56 -30 -91
-67 -54 -10 10 -19 26 -19 34 0 8 9 24 19 34 25 25 59 17 67 -14z"/>
<path d="M10430 8135 c0 -95 0 -95 25 -95 24 0 25 3 25 53 0 60 17 91 46 85
16 -3 19 -13 22 -71 3 -67 3 -67 32 -67 l30 0 0 75 c0 62 -4 79 -20 95 -24 24
-57 26 -88 4 -20 -14 -22 -14 -22 0 0 10 -9 16 -25 16 -25 0 -25 0 -25 -95z"/>
<path d="M10669 8201 c-47 -47 -38 -119 18 -149 44 -24 123 -9 123 24 0 12 -8
13 -34 9 -34 -7 -76 7 -76 25 0 6 27 10 60 10 l60 0 0 30 c0 75 -95 107 -151
51z m95 -26 c4 -12 -3 -15 -29 -15 -33 0 -43 8 -28 23 12 13 51 7 57 -8z"/>
<path d="M5950 8140 c0 -17 7 -20 50 -20 43 0 50 3 50 20 0 17 -7 20 -50 20
-43 0 -50 -3 -50 -20z"/>
<path d="M7690 7735 l0 -145 25 0 25 0 0 145 0 145 -25 0 -25 0 0 -145z"/>
<path d="M7450 7640 l0 -140 30 0 c30 0 30 1 30 55 0 52 1 55 19 45 61 -32
121 14 121 95 0 67 -66 106 -118 69 -20 -14 -22 -14 -22 0 0 11 -10 16 -30 16
l-30 0 0 -140z m140 55 c0 -40 -11 -55 -40 -55 -44 0 -56 57 -18 84 27 19 58
5 58 -29z"/>
<path d="M7818 7773 c-11 -3 -18 -14 -18 -29 0 -21 3 -23 19 -14 29 15 68 12
75 -5 4 -11 -1 -15 -19 -15 -30 0 -77 -18 -87 -33 -13 -21 -9 -53 10 -70 22
-20 63 -22 81 -4 11 10 14 10 18 0 3 -7 16 -13 29 -13 23 0 24 2 24 75 0 62
-4 79 -20 95 -19 19 -67 25 -112 13z m82 -99 c0 -18 -23 -44 -39 -44 -25 0
-34 27 -13 39 19 11 52 14 52 5z"/>
<path d="M8034 7769 c-73 -36 -58 -160 21 -175 53 -10 85 2 85 31 0 21 -3 23
-22 16 -46 -17 -88 21 -72 63 9 24 44 35 72 25 21 -8 23 -7 20 18 -3 25 -7 28
-43 30 -22 1 -50 -3 -61 -8z"/>
<path d="M8208 7765 c-30 -17 -49 -67 -41 -109 7 -37 48 -66 94 -66 53 0 69 8
69 36 0 21 -2 23 -24 13 -29 -14 -72 -5 -80 16 -4 12 5 15 54 15 32 0 62 5 65
10 4 6 1 25 -5 44 -17 52 -77 71 -132 41z m80 -42 c2 -9 -8 -13 -33 -13 -33 0
-36 2 -25 15 15 18 51 16 58 -2z"/>
<path d="M5110 7136 l0 -45 -33 6 c-28 4 -37 1 -55 -22 -27 -35 -28 -79 -2
-105 22 -22 60 -26 78 -8 9 9 12 9 12 0 0 -7 11 -12 25 -12 l25 0 0 115 0 115
-25 0 c-23 0 -25 -4 -25 -44z m-5 -111 c0 -25 -4 -30 -25 -30 -16 0 -26 6 -28
18 -6 30 6 49 30 45 18 -2 23 -9 23 -33z"/>
<path d="M5300 7136 l0 -45 -34 6 c-43 7 -76 -25 -76 -74 0 -56 63 -96 98 -61
9 9 12 9 12 0 0 -7 11 -12 25 -12 l25 0 0 115 0 115 -25 0 c-23 0 -25 -4 -25
-44z m-5 -111 c0 -25 -4 -30 -27 -33 -25 -3 -28 0 -28 26 0 35 8 44 35 40 15
-2 20 -10 20 -33z"/>
<path d="M6140 7137 c0 -42 -1 -43 -28 -39 -41 6 -74 -25 -75 -70 -2 -57 22
-76 94 -76 l59 0 0 114 0 114 -25 0 c-23 0 -25 -4 -25 -43z m-2 -109 c-2 -28
-7 -33 -28 -33 -16 0 -26 6 -28 18 -6 30 6 47 33 47 24 0 26 -3 23 -32z"/>
<path d="M4849 7133 c-6 -16 -24 -63 -39 -105 l-29 -78 26 0 c16 0 27 7 30 20
4 16 14 20 48 20 34 0 44 -4 48 -20 3 -13 14 -20 31 -20 l25 0 -37 105 c-35
100 -38 105 -64 105 -22 0 -31 -7 -39 -27z m55 -75 c6 -25 4 -28 -19 -28 -23
0 -25 3 -20 23 4 12 9 31 12 41 6 22 16 9 27 -36z"/>
<path d="M5700 7140 c0 -16 7 -20 30 -20 l30 0 0 -85 c0 -78 2 -85 20 -85 18
0 20 7 20 85 l0 85 30 0 c23 0 30 4 30 20 0 18 -7 20 -80 20 -73 0 -80 -2 -80
-20z"/>
<path d="M5483 7093 c-7 -2 -13 -13 -13 -23 0 -16 4 -17 30 -7 16 6 32 8 36 5
11 -12 -7 -28 -30 -28 -13 0 -31 -9 -40 -19 -36 -40 14 -88 63 -61 14 7 21 7
21 0 0 -5 9 -10 20 -10 18 0 20 7 20 58 0 44 -5 63 -18 75 -18 16 -63 21 -89
10z m67 -82 c0 -5 -7 -14 -15 -21 -18 -15 -42 1 -31 19 8 13 46 15 46 2z"/>
<path d="M5876 7079 c-54 -43 -18 -129 54 -129 43 0 80 35 80 75 0 67 -77 99
-134 54z m86 -36 c8 -36 -3 -54 -31 -51 -26 3 -38 26 -27 54 8 20 54 18 58 -3z"/>
<path d="M6246 7079 c-54 -43 -18 -129 54 -129 43 0 80 35 80 75 0 67 -77 99
-134 54z m86 -36 c8 -36 -3 -54 -31 -51 -26 3 -38 26 -27 54 8 20 54 18 58 -3z"/>
<path d="M10277 6654 c-104 -32 -172 -149 -147 -254 16 -68 59 -123 117 -151
46 -23 57 -24 263 -24 206 0 217 1 263 24 58 28 101 83 117 151 26 107 -43
222 -151 254 -72 22 -392 21 -462 0z m143 -169 c0 -11 -7 -14 -24 -9 -36 9
-41 -13 -7 -30 16 -9 31 -20 33 -25 2 -5 14 -3 28 4 25 14 25 14 3 15 -13 0
-23 5 -23 11 0 6 16 9 38 7 36 -3 37 -4 40 -45 l3 -43 -40 0 c-22 0 -43 5 -46
10 -5 8 -11 8 -20 0 -17 -14 -77 -9 -83 7 -2 9 5 11 27 7 41 -9 42 15 1 38
-34 19 -37 30 -14 52 21 21 84 22 84 1z m136 -47 l7 -23 8 23 c5 13 17 22 29
22 13 0 18 -4 15 -11 -4 -6 1 -5 12 2 28 17 73 4 73 -21 0 -15 -7 -20 -25 -20
-14 0 -25 -5 -25 -11 0 -7 10 -9 26 -5 19 5 25 3 22 -6 -6 -17 -56 -22 -74 -7
-8 6 -14 21 -15 33 -1 15 -4 13 -11 -11 -8 -25 -17 -33 -34 -33 -17 0 -25 9
-37 45 -15 43 -15 45 3 45 11 0 22 -10 26 -22z"/>
<path d="M4792 5758 c-16 -16 -16 -110 0 -126 7 -7 35 -12 63 -12 28 0 56 5
63 12 7 7 12 35 12 63 0 28 -5 56 -12 63 -7 7 -35 12 -63 12 -28 0 -56 -5 -63
-12z m115 -24 c1 -5 -13 -27 -31 -49 -34 -40 -34 -40 -55 -21 -22 20 -19 41 5
32 7 -3 24 8 36 24 22 28 39 33 45 14z"/>
<path d="M5173 5685 c0 -44 2 -63 4 -43 8 70 53 76 53 7 0 -21 5 -39 10 -39
12 0 13 70 1 89 -6 9 -18 11 -34 7 -23 -5 -26 -3 -30 26 -2 18 -4 -3 -4 -47z"/>
<path d="M5690 5750 c0 -5 5 -10 10 -10 6 0 10 5 10 10 0 6 -4 10 -10 10 -5 0
-10 -4 -10 -10z"/>
<path d="M5850 5750 c0 -5 5 -10 10 -10 6 0 10 5 10 10 0 6 -4 10 -10 10 -5 0
-10 -4 -10 -10z"/>
<path d="M5993 5685 c0 -44 2 -63 4 -43 8 70 53 76 53 7 0 -21 5 -39 10 -39
12 0 13 70 1 89 -6 9 -18 11 -34 7 -23 -5 -26 -3 -30 26 -2 18 -4 -3 -4 -47z"/>
<path d="M6280 5731 c0 -26 -3 -29 -32 -27 -27 1 -34 -4 -42 -27 -15 -40 2
-62 48 -62 l36 -1 0 73 c0 40 -2 73 -5 73 -3 0 -5 -13 -5 -29z m-12 -43 c15
-15 15 -30 -1 -52 -18 -25 -47 -11 -47 24 0 25 9 36 31 39 3 1 10 -4 17 -11z"/>
<path d="M5073 5743 c-25 -10 -14 -52 17 -68 48 -25 39 -51 -15 -45 -15 1 -17
-1 -9 -10 16 -16 55 -9 68 13 9 15 6 22 -16 42 -15 12 -33 25 -40 28 -18 8 19
38 38 30 8 -3 14 0 14 6 0 11 -34 14 -57 4z"/>
<path d="M5601 5678 c1 -53 3 -63 8 -38 4 25 12 36 31 41 25 7 25 7 -3 8 -23
1 -28 5 -25 23 2 16 12 25 33 29 29 6 29 7 -7 8 l-38 1 1 -72z"/>
<path d="M5287 5692 c-22 -24 -21 -45 1 -65 37 -34 82 -15 82 33 0 49 -51 68
-83 32z m57 -8 c9 -8 16 -19 16 -24 0 -10 -29 -40 -39 -40 -13 0 -31 24 -31
40 0 16 18 40 31 40 4 0 15 -7 23 -16z"/>
<path d="M5398 5660 c9 -27 19 -50 23 -50 3 0 13 17 21 38 l15 37 8 -37 c12
-60 29 -47 49 37 9 37 -5 25 -20 -18 l-11 -32 -10 35 c-11 42 -24 41 -39 -2
-11 -34 -17 -30 -28 15 -3 15 -10 27 -15 27 -5 0 -2 -22 7 -50z"/>
<path d="M5690 5660 c0 -27 5 -50 10 -50 6 0 10 23 10 50 0 28 -4 50 -10 50
-5 0 -10 -22 -10 -50z"/>
<path d="M5740 5658 c0 -26 5 -48 10 -48 6 0 10 18 10 39 0 24 5 41 14 44 21
8 36 -13 36 -50 0 -18 5 -33 10 -33 13 0 13 41 0 74 -8 21 -15 25 -45 24 l-35
-1 0 -49z"/>
<path d="M5863 5660 c0 -30 2 -43 4 -27 2 15 2 39 0 55 -2 15 -4 2 -4 -28z"/>
<path d="M5907 5703 c-15 -14 -6 -40 19 -51 28 -13 23 -37 -7 -29 -11 3 -19 1
-19 -4 0 -5 11 -9 25 -9 38 0 44 29 11 55 -28 22 -23 41 8 29 9 -3 16 -1 16 5
0 12 -42 15 -53 4z"/>
<path d="M6112 5698 c-7 -7 -12 -24 -12 -38 0 -14 5 -31 12 -38 15 -15 55 -16
64 -1 4 8 -1 9 -15 4 -22 -7 -51 9 -51 26 0 5 16 9 35 9 22 0 35 5 35 13 0 18
-21 37 -40 37 -9 0 -21 -5 -28 -12z m48 -13 c11 -13 8 -15 -20 -15 -28 0 -31
2 -20 15 7 8 16 15 20 15 4 0 13 -7 20 -15z"/>
<path d="M5960 5056 l0 -45 -34 6 c-46 7 -76 -22 -76 -75 0 -60 42 -88 91 -62
13 7 19 7 19 0 0 -5 9 -10 20 -10 19 0 20 7 20 115 0 108 -1 115 -20 115 -17
0 -20 -7 -20 -44z m-5 -95 c9 -28 -5 -51 -30 -51 -25 0 -39 23 -30 51 4 12 16
19 30 19 14 0 26 -7 30 -19z"/>
<path d="M4815 5010 c20 -40 35 -84 35 -105 0 -31 3 -35 25 -35 23 0 25 4 25
40 0 25 11 63 30 100 17 33 30 62 30 65 0 3 -11 5 -24 5 -18 0 -28 -10 -43
-46 l-20 -46 -18 46 c-15 40 -21 46 -46 46 l-29 0 35 -70z"/>
<path d="M5510 5060 c0 -16 7 -20 30 -20 l30 0 0 -85 c0 -84 0 -85 25 -85 25
0 25 1 25 84 l0 85 27 3 c17 2 29 10 31 21 3 15 -6 17 -82 17 -79 0 -86 -2
-86 -20z"/>
<path d="M4970 5000 c-12 -12 -20 -33 -20 -55 0 -46 29 -75 75 -75 43 0 85 37
85 75 0 63 -95 100 -140 55z m85 -55 c0 -25 -4 -31 -26 -33 -29 -3 -44 18 -33
50 4 14 13 18 32 16 23 -2 27 -8 27 -33z"/>
<path d="M5142 4954 c4 -79 18 -96 68 -77 16 6 30 7 30 2 0 -5 9 -9 20 -9 18
0 20 7 20 75 0 68 -2 75 -20 75 -17 0 -20 -7 -20 -42 0 -52 -11 -71 -36 -66
-15 2 -20 14 -22 56 -3 44 -6 52 -23 52 -18 0 -20 -6 -17 -66z"/>
<path d="M5320 4945 c0 -73 1 -75 24 -75 23 0 25 4 28 53 3 45 6 52 26 55 14
2 22 10 22 23 0 21 -20 25 -38 7 -9 -9 -12 -9 -12 0 0 7 -11 12 -25 12 -24 0
-25 -2 -25 -75z"/>
<path d="M5685 4995 c-64 -63 17 -156 98 -114 30 16 37 28 37 67 0 68 -85 98
-135 47z m90 -34 c10 -31 -5 -52 -34 -49 -26 3 -38 26 -27 54 8 21 53 18 61
-5z"/>
<path d="M6055 4995 c-64 -63 17 -156 98 -114 30 16 37 28 37 67 0 68 -85 98
-135 47z m90 -34 c10 -31 -5 -52 -34 -49 -26 3 -38 26 -27 54 8 21 53 18 61
-5z"/>
<path d="M6229 5001 c-20 -16 -22 -23 -13 -38 6 -10 23 -24 37 -31 40 -19 34
-36 -9 -28 -31 6 -35 5 -32 -11 2 -13 14 -19 44 -21 74 -5 100 63 33 87 -35
12 -29 35 7 28 18 -3 24 0 24 14 0 26 -60 26 -91 0z"/>
<path d="M5640 4431 c0 -24 -3 -28 -20 -24 -29 8 -50 -14 -50 -53 0 -35 11
-42 68 -42 21 -1 22 3 22 74 0 43 -4 74 -10 74 -5 0 -10 -13 -10 -29z m-16
-37 c20 -8 21 -48 1 -64 -30 -25 -61 30 -33 58 14 14 12 14 32 6z"/>
<path d="M6250 4431 c0 -24 -3 -28 -20 -24 -28 7 -50 -14 -50 -47 0 -35 17
-49 58 -48 l32 1 0 74 c0 42 -4 73 -10 73 -5 0 -10 -13 -10 -29z m-2 -68 c4
-37 -25 -54 -45 -27 -17 23 -16 29 3 49 23 22 38 14 42 -22z"/>
<path d="M6300 4450 c0 -5 5 -10 10 -10 6 0 10 5 10 10 0 6 -4 10 -10 10 -5 0
-10 -4 -10 -10z"/>
<path d="M6563 4385 c0 -44 2 -61 4 -37 2 23 2 59 0 80 -2 20 -4 1 -4 -43z"/>
<path d="M5050 4380 c0 -81 18 -95 22 -18 l3 53 34 -53 c18 -28 37 -52 42 -52
5 0 8 33 7 73 l-1 72 -6 -60 -6 -60 -37 58 c-21 31 -42 57 -48 57 -6 0 -10
-29 -10 -70z"/>
<path d="M5378 4443 c20 -4 22 -11 24 -71 l1 -67 6 64 c5 52 10 66 26 72 13 5
4 7 -30 7 -27 0 -40 -3 -27 -5z"/>
<path d="M5950 4425 c0 -8 -6 -15 -12 -15 -10 0 -10 -2 -1 -8 6 -4 13 -25 15
-47 2 -31 7 -40 23 -42 11 -2 14 0 8 3 -7 3 -13 23 -13 44 0 21 6 41 13 43 10
4 10 6 0 6 -7 1 -13 8 -13 16 0 8 -4 15 -10 15 -5 0 -10 -7 -10 -15z"/>
<path d="M5205 4394 c-19 -20 -16 -63 6 -77 25 -16 68 0 75 27 13 54 -43 88
-81 50z m49 0 c20 -8 21 -60 1 -68 -8 -3 -22 -3 -30 0 -18 7 -20 60 -2 67 6 3
13 6 14 6 1 1 8 -2 17 -5z"/>
<path d="M5462 4398 c-7 -7 -12 -24 -12 -38 0 -32 17 -50 46 -50 23 0 54 33
54 57 0 34 -62 57 -88 31z m62 -21 c11 -18 0 -47 -21 -54 -12 -4 -43 23 -43
37 0 14 31 41 43 37 6 -2 15 -11 21 -20z"/>
<path d="M5697 4392 c-22 -24 -21 -45 1 -65 37 -34 82 -15 82 33 0 49 -51 68
-83 32z m57 -8 c9 -8 16 -19 16 -24 0 -10 -29 -40 -39 -40 -13 0 -31 24 -31
40 0 16 18 40 31 40 4 0 15 -7 23 -16z"/>
<path d="M5813 4403 c-21 -8 -14 -33 12 -45 30 -13 27 -34 -4 -31 -11 2 -21
-2 -21 -7 0 -16 46 -11 61 6 11 14 10 18 -5 30 -10 7 -23 15 -29 17 -6 2 -7 9
-3 16 5 7 14 10 22 7 8 -3 14 -1 14 4 0 10 -26 12 -47 3z"/>
<path d="M6022 4398 c-7 -7 -12 -24 -12 -38 0 -32 17 -50 46 -50 23 0 54 33
54 57 0 34 -62 57 -88 31z m62 -21 c11 -18 0 -47 -21 -54 -12 -4 -43 23 -43
37 0 14 31 41 43 37 6 -2 15 -11 21 -20z"/>
<path d="M6300 4360 c0 -27 5 -50 10 -50 6 0 10 23 10 50 0 28 -4 50 -10 50
-5 0 -10 -22 -10 -50z"/>
<path d="M6357 4403 c-15 -14 -6 -40 19 -51 28 -13 23 -37 -7 -29 -11 3 -19 1
-19 -4 0 -5 11 -9 25 -9 38 0 44 29 11 55 -28 22 -23 41 8 29 9 -3 16 -1 16 5
0 12 -42 15 -53 4z"/>
<path d="M6442 4330 c0 -41 3 -61 5 -44 4 27 7 30 33 26 24 -3 32 1 41 22 9
20 9 32 1 51 -10 21 -18 25 -47 23 l-35 -3 2 -75z m52 64 c20 -8 21 -48 1 -64
-30 -25 -61 30 -33 58 14 14 12 14 32 6z"/>
<path d="M6604 4399 c-5 -9 -1 -11 14 -7 12 4 26 0 33 -8 9 -11 7 -14 -9 -14
-11 0 -28 -7 -37 -16 -22 -22 -3 -44 36 -41 29 2 30 4 27 47 -3 40 -6 45 -30
48 -14 2 -29 -2 -34 -9z m43 -66 c-15 -15 -37 -11 -37 7 0 10 31 19 43 12 5
-2 2 -11 -6 -19z"/>
<path d="M6710 4359 c21 -51 17 -81 -12 -92 -9 -4 -7 -6 3 -6 9 -1 21 5 26 12
17 21 56 127 50 134 -4 3 -14 -14 -23 -38 l-18 -43 -14 42 c-7 23 -18 42 -23
42 -5 0 0 -23 11 -51z"/>
</g>
</svg>
