<?xml version="1.0" standalone="no"?>
<!DOCTYPE svg PUBLIC "-//W3C//DTD SVG 20010904//EN"
 "http://www.w3.org/TR/2001/REC-SVG-20010904/DTD/svg10.dtd">
<svg version="1.0" xmlns="http://www.w3.org/2000/svg"
 width="1842.000000pt" height="959.000000pt" viewBox="0 0 1842.000000 959.000000"
 preserveAspectRatio="xMidYMid meet">

<g transform="translate(0.000000,959.000000) scale(0.100000,-0.100000)"
fill="#000000" stroke="none">
<path d="M0 4795 l0 -4795 2305 0 2304 0 3 259 c4 381 -42 351 548 351 479 0
478 0 524 -63 20 -27 21 -44 24 -288 l3 -259 124 0 125 0 0 50 c0 47 -2 50
-25 50 -18 0 -25 5 -25 20 0 18 7 20 75 20 68 0 75 -2 75 -20 0 -15 -7 -20
-25 -20 -23 0 -25 -3 -25 -50 l0 -50 35 0 c35 0 35 0 35 45 0 38 3 45 20 45
17 0 20 -7 20 -45 l0 -45 37 0 c37 0 37 0 15 16 -49 34 3 97 62 75 22 -9 26
-14 17 -25 -7 -8 -22 -11 -39 -8 -32 6 -29 2 21 -32 21 -14 48 -26 60 -26 l21
0 -22 16 c-49 34 3 97 62 75 22 -9 26 -14 17 -25 -7 -8 -22 -11 -39 -8 -15 2
-25 2 -22 -1 8 -9 80 -57 85 -57 3 0 5 20 5 45 0 38 3 45 20 45 17 0 20 -7 20
-45 0 -38 3 -45 20 -45 17 0 20 7 20 45 0 41 2 45 25 45 23 0 25 -4 25 -45 0
-55 13 -59 26 -8 19 76 115 81 122 6 3 -31 2 -32 -40 -36 -24 -2 -8 -4 40 -5
l82 -2 0 70 0 70 49 0 c59 0 93 -23 94 -64 0 -34 -17 -52 -63 -64 l-35 -10 48
-1 c35 -1 56 5 74 19 14 11 34 20 45 20 11 0 16 5 13 11 -4 6 -19 7 -36 4 -23
-5 -29 -3 -29 9 0 21 46 39 74 30 28 -9 36 -22 36 -61 0 -26 4 -33 20 -33 17
0 20 7 20 44 l0 43 43 6 c58 8 87 -12 87 -58 0 -19 5 -35 10 -35 6 0 10 13 10
29 0 39 43 75 80 66 31 -7 50 -31 50 -61 0 -20 -6 -23 -47 -27 -47 -3 -47 -3
10 -5 l57 -2 0 45 c0 43 1 45 28 45 15 -1 36 0 46 2 29 5 31 -21 2 -32 -19 -7
-26 -17 -26 -35 l0 -25 2575 0 2575 0 0 123 c0 137 11 170 72 207 32 19 52 20
648 20 596 0 616 -1 648 -20 61 -37 72 -70 72 -207 l0 -123 2205 0 2205 0 0
4795 0 4795 -9210 0 -9210 0 0 -4795z m14236 4459 c15 -11 37 -33 48 -48 l21
-27 0 -1569 0 -1569 -21 -27 c-11 -15 -33 -37 -48 -48 l-27 -21 -4899 0 -4899
0 -27 21 c-15 11 -37 33 -48 48 -21 27 -21 30 -24 1569 -1 848 0 1556 3 1574
7 40 49 91 90 109 25 11 869 13 4917 11 l4887 -2 27 -21z m-354 -4141 c16 -15
18 -36 18 -236 0 -191 -2 -223 -17 -239 -15 -17 -58 -18 -956 -18 -861 0 -942
1 -959 17 -16 15 -18 36 -18 236 0 191 2 223 17 239 15 17 58 18 956 18 861 0
942 -1 959 -17z m-9012 -128 c0 -8 -6 -15 -14 -15 -17 0 -28 14 -19 24 12 12
33 6 33 -9z m60 -49 c0 -35 3 -71 6 -80 4 -12 0 -16 -15 -16 -20 0 -21 5 -21
80 0 64 3 80 15 80 12 0 15 -14 15 -64z m390 40 c0 -21 5 -24 27 -23 36 3 62
-39 47 -80 -8 -25 -15 -28 -57 -31 l-47 -3 0 80 c0 65 3 81 15 81 9 0 15 -9
15 -24z m-500 -1 c0 -10 -10 -15 -30 -15 -20 0 -30 -5 -30 -15 0 -9 9 -15 25
-15 16 0 25 -6 25 -15 0 -9 -9 -15 -25 -15 -21 0 -25 -5 -25 -30 0 -23 -4 -30
-20 -30 -18 0 -20 7 -20 75 l0 75 50 0 c38 0 50 -4 50 -15z m180 -10 c0 -8 7
-15 15 -15 8 0 15 -4 15 -10 0 -5 -7 -10 -15 -10 -10 0 -15 -11 -15 -35 0 -24
5 -35 15 -35 8 0 15 -4 15 -10 0 -5 -13 -10 -30 -10 -31 0 -32 2 -43 74 -5 32
10 66 30 66 7 0 13 -7 13 -15z m120 -25 c32 -32 26 -50 -16 -50 -24 0 -34 -4
-31 -12 2 -7 14 -13 27 -13 13 0 25 -6 28 -13 6 -18 -58 -15 -80 5 -10 9 -18
27 -18 40 0 26 32 63 55 63 8 0 24 -9 35 -20z m110 6 c0 -8 -9 -18 -20 -21
-16 -5 -20 -15 -20 -46 0 -32 -3 -39 -20 -39 -18 0 -20 7 -20 56 0 51 2 56 20
51 11 -3 23 -1 26 4 8 14 34 10 34 -5z m532 2 c9 -7 18 -22 20 -33 2 -16 -3
-21 -30 -23 -38 -4 -39 -27 -2 -27 13 0 25 -6 28 -13 2 -8 -9 -12 -37 -12 -30
0 -43 5 -51 19 -16 30 -12 59 10 81 23 23 40 25 62 8z m109 2 c15 -8 19 -22
19 -60 l0 -50 -44 0 c-30 0 -46 5 -50 15 -9 25 5 46 35 52 16 3 26 10 23 15
-4 5 -17 7 -30 4 -17 -5 -24 -2 -24 8 0 13 14 21 43 25 5 0 17 -4 28 -9z m119
-3 c0 -7 -9 -18 -20 -25 -14 -8 -20 -23 -20 -47 0 -24 -5 -35 -15 -35 -11 0
-15 13 -15 54 0 52 1 55 28 59 15 2 30 5 35 6 4 0 7 -5 7 -12z m-1120 -52 c0
-42 -3 -55 -15 -55 -12 0 -15 13 -15 55 0 42 3 55 15 55 12 0 15 -13 15 -55z
m576 30 c3 -14 10 -25 14 -25 4 0 11 11 14 25 4 14 13 25 21 25 19 0 19 -5 -5
-76 -20 -58 -41 -84 -67 -84 -18 0 -16 20 4 35 16 12 15 16 -4 69 -20 54 -20
56 -2 56 12 0 21 -10 25 -25z m160 0 c3 -14 10 -25 14 -25 4 0 11 11 14 25 4
14 13 25 21 25 19 0 19 -5 -5 -76 -20 -58 -41 -84 -67 -84 -18 0 -16 20 4 35
16 12 15 16 -4 69 -20 54 -20 56 -2 56 12 0 21 -10 25 -25z m8420 -531 c19 -9
44 -31 57 -48 l22 -31 0 -905 0 -905 -22 -31 c-13 -17 -38 -39 -57 -48 -31
-15 -417 -16 -4716 -16 -4299 0 -4685 1 -4716 16 -19 9 -44 31 -57 48 l-22 31
0 905 0 905 22 31 c12 17 37 38 55 47 30 15 423 17 4716 17 4301 0 4687 -1
4718 -16z m-8397 -2302 c19 -9 44 -30 55 -45 21 -28 21 -39 21 -487 0 -448 0
-459 -21 -487 -46 -63 -45 -63 -524 -63 -479 0 -478 0 -524 63 -21 28 -21 39
-21 487 0 448 0 459 21 487 46 63 45 63 524 63 394 0 438 -2 469 -18z m8309
-262 c66 -40 72 -63 72 -270 0 -207 -6 -230 -72 -270 -32 -19 -52 -20 -533
-20 -481 0 -501 1 -533 20 -66 40 -72 63 -72 270 0 207 6 230 72 270 32 19 52
20 533 20 481 0 501 -1 533 -20z m-7388 -211 c0 -26 3 -29 20 -24 10 3 28 1
40 -5 17 -9 20 -21 20 -75 0 -58 -2 -65 -19 -65 -17 0 -20 8 -23 53 -2 38 -7
52 -18 52 -11 0 -16 -14 -18 -52 -3 -49 -5 -53 -28 -53 -24 0 -24 1 -24 100
l0 100 25 0 c21 0 25 -5 25 -31z m-230 -9 c0 -13 7 -20 20 -20 11 0 20 -7 20
-15 0 -8 -9 -15 -20 -15 -30 0 -29 -69 0 -77 27 -7 22 -37 -6 -41 -33 -5 -54
24 -54 74 0 24 -4 44 -10 44 -5 0 -10 7 -10 15 0 8 4 15 9 15 5 0 11 9 14 20
3 11 12 20 21 20 9 0 16 -8 16 -20z m-92 -26 c18 -13 22 -25 22 -73 l0 -58
-42 -6 c-51 -7 -78 6 -78 38 0 26 33 55 63 55 10 0 15 5 12 11 -4 5 -19 7 -35
4 -39 -8 -49 20 -12 34 38 13 45 13 70 -5z m241 7 c20 -13 8 -36 -19 -36 -12
0 -28 -8 -34 -17 -16 -25 5 -53 37 -51 35 2 44 -25 11 -37 -34 -13 -38 -13
-68 11 -20 16 -26 29 -26 59 0 57 57 98 99 71z m-506 -41 l10 -35 10 38 c7 29
14 37 32 37 18 0 24 -8 32 -42 l10 -43 8 43 c6 34 12 42 30 42 l22 0 -16 -70
c-15 -65 -18 -70 -42 -70 -23 0 -29 6 -36 38 l-10 37 -8 -37 c-6 -33 -11 -38
-35 -38 -26 0 -29 5 -44 65 -20 80 -20 77 6 73 15 -2 25 -13 31 -38z m157
-1405 c15 -18 5 -35 -21 -35 -12 0 -19 7 -19 18 0 33 20 42 40 17z"/>
<path d="M4642 8998 c7 -19 38 -22 38 -4 0 10 -9 16 -21 16 -12 0 -19 -5 -17
-12z"/>
<path d="M4792 8933 c3 -73 4 -78 26 -81 21 -3 22 -1 13 17 -6 11 -11 47 -11
80 0 48 -3 61 -15 61 -13 0 -15 -13 -13 -77z"/>
<path d="M4510 8985 c0 -8 9 -15 20 -15 18 0 20 -7 20 -60 0 -53 2 -60 20 -60
18 0 20 7 20 60 0 53 2 60 20 60 11 0 20 7 20 15 0 12 -13 15 -60 15 -47 0
-60 -3 -60 -15z"/>
<path d="M8745 8988 c-3 -7 -13 -41 -24 -75 -18 -60 -18 -63 -1 -63 10 0 20 9
23 20 3 12 14 20 25 20 12 0 23 -9 27 -20 3 -11 15 -20 25 -20 18 0 17 4 -7
75 -19 59 -29 75 -44 75 -11 0 -22 -6 -24 -12z m35 -64 c0 -8 -4 -14 -10 -14
-5 0 -10 9 -10 21 0 11 5 17 10 14 6 -3 10 -13 10 -21z"/>
<path d="M4710 8976 c0 -8 -6 -17 -12 -19 -10 -4 -10 -8 -1 -14 6 -4 13 -26
15 -48 3 -35 6 -40 31 -43 29 -4 37 12 12 22 -9 3 -15 18 -15 36 0 20 5 30 15
30 8 0 15 5 15 10 0 6 -7 10 -15 10 -8 0 -15 7 -15 15 0 8 -7 15 -15 15 -8 0
-15 -6 -15 -14z"/>
<path d="M9430 8976 c0 -8 -6 -16 -12 -19 -10 -3 -10 -7 -1 -18 6 -8 13 -30
15 -49 3 -30 7 -35 31 -38 29 -4 37 12 12 22 -9 3 -15 18 -15 36 0 20 5 30 15
30 8 0 15 5 15 10 0 6 -7 10 -15 10 -8 0 -15 7 -15 15 0 8 -7 15 -15 15 -8 0
-15 -6 -15 -14z"/>
<path d="M4864 8945 c-25 -26 -26 -52 -2 -82 15 -18 78 -17 78 1 0 10 -9 14
-26 13 -15 -1 -29 4 -31 11 -3 8 7 12 31 12 29 0 36 4 36 19 0 18 -34 51 -53
51 -4 0 -19 -11 -33 -25z m51 -15 c3 -5 -3 -10 -15 -10 -12 0 -18 5 -15 10 3
6 10 10 15 10 5 0 12 -4 15 -10z"/>
<path d="M8878 8963 c-27 -4 -28 -7 -28 -59 0 -40 4 -54 14 -54 10 0 16 13 18
42 4 59 28 63 28 4 0 -39 3 -46 19 -46 16 0 20 8 23 43 2 23 8 42 13 42 6 0
11 -19 13 -42 3 -35 7 -43 23 -43 15 0 19 7 19 33 0 17 -3 42 -6 54 -7 26 -39
39 -57 24 -8 -6 -18 -6 -27 -1 -8 6 -17 9 -20 8 -3 0 -17 -3 -32 -5z"/>
<path d="M9050 8950 c-39 -39 -14 -100 42 -100 51 0 70 68 28 102 -29 23 -45
23 -70 -2z m58 -36 c3 -25 -13 -48 -27 -40 -12 8 -15 49 -4 60 11 11 28 1 31
-20z"/>
<path d="M9336 8961 c-3 -5 -15 -7 -26 -4 -18 5 -20 0 -20 -51 0 -49 2 -56 19
-56 16 0 20 8 23 42 4 59 28 63 28 4 0 -40 3 -46 21 -46 20 0 21 4 17 51 -5
48 -18 69 -45 69 -6 0 -14 -4 -17 -9z"/>
<path d="M4640 8905 c0 -48 2 -55 20 -55 18 0 20 7 20 55 0 48 -2 55 -20 55
-18 0 -20 -7 -20 -55z"/>
<path d="M9160 8921 c0 -64 6 -71 61 -71 l49 0 0 55 c0 48 -2 55 -20 55 -17 0
-20 -7 -20 -40 0 -29 -4 -40 -15 -40 -11 0 -15 11 -15 40 0 33 -3 40 -20 40
-17 0 -20 -7 -20 -39z"/>
<path d="M4520 7825 l0 -75 40 0 c51 0 80 27 80 75 0 48 -29 75 -80 75 l-40 0
0 -75z m75 0 c0 -30 -4 -41 -17 -43 -15 -3 -18 4 -18 43 0 39 3 46 18 43 13
-2 17 -13 17 -43z"/>
<path d="M4780 7876 c0 -8 -6 -17 -12 -19 -10 -4 -10 -8 -1 -14 6 -4 13 -26
15 -48 3 -35 6 -40 31 -43 29 -4 37 12 12 22 -9 3 -15 18 -15 36 0 20 5 30 15
30 8 0 15 5 15 10 0 6 -7 10 -15 10 -8 0 -15 7 -15 15 0 8 -7 15 -15 15 -8 0
-15 -6 -15 -14z"/>
<path d="M4677 7859 c-24 -14 -11 -30 19 -23 14 4 24 2 24 -4 0 -6 -10 -12
-21 -14 -27 -4 -44 -30 -36 -52 5 -11 19 -16 52 -16 l45 0 0 40 c0 27 -7 47
-20 60 -22 22 -37 24 -63 9z m43 -68 c0 -12 -20 -25 -27 -18 -7 7 6 27 18 27
5 0 9 -4 9 -9z"/>
<path d="M4872 7854 c-25 -17 -31 -71 -10 -92 19 -19 78 -15 78 4 0 10 -6 14
-15 10 -18 -6 -45 2 -45 15 0 5 16 9 35 9 27 0 35 4 35 18 0 19 -29 52 -46 52
-5 0 -20 -7 -32 -16z m43 -24 c3 -5 -3 -10 -15 -10 -12 0 -18 5 -15 10 3 6 10
10 15 10 5 0 12 -4 15 -10z"/>
<path d="M8199 7396 c-5 -6 -9 -43 -9 -83 l0 -74 78 3 77 3 3 69 c2 38 -2 74
-7 79 -13 13 -129 15 -142 3z m131 -91 l0 -55 -60 0 -60 0 0 55 0 55 60 0 60
0 0 -55z"/>
<path d="M5046 7311 c-16 -51 -26 -94 -23 -97 6 -6 59 165 55 178 -2 6 -17
-30 -32 -81z"/>
<path d="M5190 7372 c0 -24 -4 -28 -27 -27 -33 0 -54 -35 -44 -73 6 -23 13
-27 49 -28 l42 -2 0 79 c0 46 -4 79 -10 79 -5 0 -10 -13 -10 -28z m0 -77 c0
-39 -27 -56 -47 -29 -17 23 -16 39 2 58 23 23 45 9 45 -29z"/>
<path d="M5310 7371 c0 -24 -3 -28 -20 -24 -29 8 -50 -14 -50 -52 0 -40 17
-55 58 -52 l32 2 0 78 c0 45 -4 77 -10 77 -5 0 -10 -13 -10 -29z m-2 -80 c-2
-28 -7 -36 -23 -36 -15 0 -21 8 -23 34 -4 35 11 53 35 44 9 -4 13 -18 11 -42z"/>
<path d="M5421 7377 c-20 -52 -52 -169 -48 -174 3 -2 12 19 21 49 9 29 22 74
30 101 15 48 13 66 -3 24z"/>
<path d="M4650 7293 c0 -29 5 -53 10 -53 6 0 10 20 10 44 0 28 5 46 14 49 21
8 26 -2 26 -50 0 -23 5 -43 10 -43 6 0 10 17 10 38 0 41 15 63 36 55 9 -3 14
-21 14 -49 0 -24 5 -44 10 -44 13 0 13 66 0 90 -8 15 -21 18 -75 17 l-65 -2 0
-52z"/>
<path d="M4830 7293 c0 -29 5 -53 10 -53 6 0 10 17 10 38 0 41 15 63 36 55 9
-3 14 -21 14 -49 0 -24 5 -44 10 -44 6 0 10 20 10 44 0 28 5 46 14 49 21 8 26
-2 26 -50 0 -23 5 -43 10 -43 6 0 10 23 10 50 0 55 -17 73 -51 52 -11 -7 -20
-8 -24 -2 -3 5 -21 9 -40 8 l-35 -1 0 -54z"/>
<path d="M5460 7345 c0 -2 9 -28 20 -56 22 -55 21 -79 -5 -79 -9 0 -13 -5 -10
-10 14 -23 44 13 65 76 12 36 19 68 16 71 -5 6 -26 -39 -26 -57 0 -5 -4 -11
-10 -15 -5 -3 -14 13 -21 35 -7 22 -16 40 -21 40 -4 0 -8 -2 -8 -5z"/>
<path d="M5580 7304 c25 -56 25 -80 3 -93 -10 -5 -14 -13 -10 -17 12 -12 43
27 60 76 8 25 18 53 22 63 4 9 3 17 -3 17 -5 0 -15 -21 -23 -47 l-13 -47 -19
47 c-11 26 -23 47 -28 47 -5 0 1 -21 11 -46z"/>
<path d="M5670 7345 c0 -2 9 -28 20 -56 22 -55 21 -79 -5 -79 -9 0 -13 -5 -10
-10 14 -23 44 13 65 76 12 36 19 68 16 71 -5 6 -26 -39 -26 -57 0 -5 -4 -11
-10 -15 -5 -3 -14 13 -21 35 -7 22 -16 40 -21 40 -4 0 -8 -2 -8 -5z"/>
<path d="M5775 7333 c40 -100 41 -104 21 -119 -11 -7 -17 -17 -13 -20 13 -13
35 17 56 77 12 33 20 65 18 72 -2 7 -10 -7 -17 -30 -7 -24 -16 -43 -20 -43 -4
0 -12 18 -19 40 -6 22 -17 40 -22 40 -7 0 -8 -7 -4 -17z"/>
<path d="M10322 6830 c-18 -11 -41 -34 -52 -52 -18 -31 -20 -51 -20 -283 0
-232 2 -252 20 -283 11 -18 34 -41 52 -52 32 -19 52 -20 653 -20 601 0 621 1
653 20 18 11 41 34 52 52 18 31 20 51 20 283 0 232 -2 252 -20 283 -11 18 -34
41 -52 52 -32 19 -52 20 -653 20 -601 0 -621 -1 -653 -20z m948 -324 c0 -35 3
-71 6 -80 4 -11 1 -16 -10 -16 -13 0 -16 13 -16 80 0 47 4 80 10 80 6 0 10
-28 10 -64z m-492 36 c3 -9 -3 -11 -22 -6 -35 8 -56 -11 -56 -50 0 -46 13 -59
49 -54 20 3 30 1 28 -6 -6 -17 -72 -19 -86 -2 -42 51 -8 140 52 134 17 -2 32
-9 35 -16z m106 -38 c3 -9 6 -33 6 -54 l0 -38 -42 2 c-38 1 -43 4 -43 25 0 19
8 27 35 36 28 10 32 14 18 20 -10 4 -25 5 -33 1 -15 -5 -20 5 -8 17 13 13 61
7 67 -9z m124 -41 c2 -31 -1 -53 -7 -53 -5 0 -11 19 -13 43 -2 34 -7 42 -23
42 -16 0 -21 -8 -23 -42 -5 -62 -22 -53 -22 11 l0 54 43 -2 42 -1 3 -52z m107
48 c3 -5 -7 -11 -22 -13 -24 -3 -28 -8 -28 -33 0 -25 4 -30 28 -33 38 -5 34
-24 -5 -20 -23 2 -37 11 -47 29 -13 24 -13 29 2 53 17 26 60 36 72 17z m105
-10 c17 -32 12 -41 -25 -41 -24 0 -35 -5 -35 -15 0 -15 10 -19 43 -16 9 1 17
-3 17 -8 0 -6 -16 -11 -35 -11 -35 0 -55 20 -55 56 0 46 69 73 90 35z"/>
<path d="M10825 6450 c-3 -5 -3 -15 0 -20 7 -12 45 5 45 20 0 13 -37 13 -45 0z"/>
<path d="M11160 6486 c0 -11 9 -16 26 -16 31 0 28 23 -4 28 -15 2 -22 -2 -22
-12z"/>
<path d="M11972 6830 c-18 -11 -41 -34 -52 -52 -18 -31 -20 -51 -20 -283 0
-232 2 -252 20 -283 11 -18 34 -41 52 -52 32 -19 53 -20 933 -20 880 0 901 1
933 20 18 11 41 34 52 52 18 31 20 51 20 283 0 232 -2 252 -20 283 -11 18 -34
41 -52 52 -32 19 -53 20 -933 20 -880 0 -901 -1 -933 -20z m568 -338 l0 -79
-37 -1 c-46 -2 -63 12 -63 52 0 38 15 56 47 56 18 0 23 6 23 25 0 16 6 25 15
25 12 0 15 -15 15 -78z m120 -2 l0 -80 -40 0 c-34 0 -42 4 -52 26 -16 35 7 78
45 82 21 3 27 9 27 28 0 13 5 24 10 24 6 0 10 -33 10 -80z m-253 4 c12 -32 22
-65 22 -71 1 -21 -20 -15 -26 7 -6 24 -63 29 -63 6 0 -15 -18 -31 -26 -24 -3
4 16 67 41 136 10 26 30 5 52 -54z m423 56 c0 -5 -13 -10 -30 -10 -23 0 -30
-4 -30 -20 0 -15 7 -20 25 -20 14 0 25 -4 25 -10 0 -5 -11 -10 -25 -10 -20 0
-25 -5 -25 -24 0 -20 6 -24 36 -28 29 -3 39 0 51 18 13 20 13 25 -2 48 -15 23
-15 26 -2 26 9 0 19 -9 22 -21 l7 -21 15 21 c21 31 36 25 19 -8 -13 -25 -13
-31 1 -50 20 -29 6 -42 -16 -15 -17 21 -18 21 -29 3 -10 -15 -24 -19 -72 -19
l-60 0 0 75 0 75 45 0 c25 0 45 -4 45 -10z m207 -41 c16 -14 17 -53 3 -80 -7
-12 -21 -19 -40 -19 -25 0 -30 -4 -30 -25 0 -14 -4 -25 -10 -25 -6 0 -10 33
-10 78 l0 79 37 1 c20 1 42 -3 50 -9z m121 -21 c3 -26 1 -28 -32 -28 -20 0
-36 -4 -36 -10 0 -15 31 -28 53 -22 14 3 18 1 13 -6 -9 -16 -59 -15 -74 0 -16
16 -15 71 0 86 7 7 26 12 43 10 24 -2 31 -8 33 -30z m114 19 c4 -7 8 -31 8
-54 0 -32 -4 -43 -15 -43 -11 0 -15 12 -15 46 0 38 -3 45 -17 42 -13 -2 -19
-15 -21 -46 -2 -28 -8 -42 -18 -42 -10 0 -14 14 -14 54 l0 54 42 0 c24 1 46
-5 50 -11z m98 4 c0 -5 -12 -11 -27 -13 l-28 -4 33 -19 c46 -28 41 -59 -10
-63 -24 -2 -38 1 -38 9 0 6 8 9 19 6 10 -2 25 -1 32 4 9 5 4 13 -19 26 -30 17
-41 41 -25 56 10 11 63 8 63 -2z m108 -3 c7 -7 12 -20 12 -30 0 -14 -8 -18
-35 -18 -19 0 -35 -4 -35 -9 0 -16 27 -31 44 -25 9 3 16 1 16 -6 0 -7 -12 -10
-32 -8 -23 2 -37 11 -47 29 -13 24 -13 29 2 53 19 28 54 35 75 14z"/>
<path d="M12465 6481 c-8 -26 4 -51 26 -51 15 0 19 7 19 35 0 28 -4 35 -19 35
-11 0 -22 -8 -26 -19z"/>
<path d="M12597 6493 c-11 -10 -8 -48 4 -60 20 -20 39 -3 39 33 0 26 -4 34
-18 34 -10 0 -22 -3 -25 -7z"/>
<path d="M12362 6500 c-7 -19 -6 -26 5 -28 21 -5 25 2 14 29 l-9 24 -10 -25z"/>
<path d="M12977 6493 c-4 -3 -7 -19 -7 -35 0 -23 4 -28 24 -28 24 0 35 20 28
53 -3 17 -32 23 -45 10z"/>
<path d="M13097 6493 c-14 -13 -6 -23 18 -23 16 0 25 6 25 15 0 15 -31 21 -43
8z"/>
<path d="M13427 6494 c-14 -14 -6 -24 19 -24 16 0 24 5 22 13 -5 14 -31 21
-41 11z"/>
<path d="M12740 4885 c0 -59 3 -77 15 -82 9 -3 17 -4 18 -2 1 2 1 39 -1 82 -3
58 -7 77 -18 77 -11 0 -14 -17 -14 -75z"/>
<path d="M12800 4885 c0 -59 3 -77 15 -82 9 -3 17 -4 18 -2 1 2 1 39 -1 82 -3
58 -7 77 -18 77 -11 0 -14 -17 -14 -75z"/>
<path d="M12622 4882 c-26 -81 -26 -82 -7 -82 8 0 15 9 15 20 0 15 7 20 26 20
17 0 28 -6 31 -20 3 -11 12 -20 19 -20 18 0 18 1 -8 82 -15 47 -27 68 -38 68
-11 0 -23 -21 -38 -68z m50 3 c4 -19 1 -25 -12 -25 -13 0 -16 6 -12 25 2 14 8
25 12 25 4 0 10 -11 12 -25z"/>
<path d="M13736 4902 c-3 -5 8 -22 25 -38 l29 -28 27 27 c30 30 24 50 -7 22
-20 -18 -21 -18 -44 4 -13 12 -26 18 -30 13z"/>
<path d="M5327 4924 c-13 -13 -7 -52 8 -58 17 -6 29 13 23 40 -3 19 -20 28
-31 18z"/>
<path d="M5070 4920 c0 -5 7 -10 15 -10 8 0 15 5 15 10 0 6 -7 10 -15 10 -8 0
-15 -4 -15 -10z"/>
<path d="M5720 4920 c0 -5 7 -10 15 -10 8 0 15 5 15 10 0 6 -7 10 -15 10 -8 0
-15 -4 -15 -10z"/>
<path d="M5835 4879 c-4 -6 -5 -13 -2 -16 7 -7 27 6 27 18 0 12 -17 12 -25 -2z"/>
<path d="M5029 4181 l-29 -29 0 -667 0 -667 29 -29 c40 -39 82 -39 122 0 l29
29 0 667 0 667 -29 29 c-20 20 -39 29 -61 29 -22 0 -41 -9 -61 -29z m116 -6
l25 -24 0 -666 0 -666 -25 -24 c-32 -33 -78 -33 -110 0 l-25 24 0 666 0 666
25 24 c15 16 36 25 55 25 19 0 40 -9 55 -25z"/>
<path d="M5789 4181 l-29 -29 0 -667 0 -667 29 -29 c40 -39 82 -39 122 0 l29
29 0 667 0 667 -29 29 c-20 20 -39 29 -61 29 -22 0 -41 -9 -61 -29z m116 -6
l25 -24 0 -666 0 -666 -25 -24 c-32 -33 -78 -33 -110 0 l-25 24 0 666 0 666
25 24 c15 16 36 25 55 25 19 0 40 -9 55 -25z"/>
<path d="M6581 4196 c-51 -28 -50 -15 -51 -708 0 -481 3 -654 12 -673 12 -27
54 -55 83 -55 29 0 71 28 83 55 9 19 12 192 12 670 0 478 -3 651 -12 670 -13
28 -55 55 -85 55 -10 -1 -29 -7 -42 -14z"/>
<path d="M7329 4181 l-29 -29 0 -667 0 -667 29 -29 c18 -17 40 -29 56 -29 16
0 38 12 56 29 l29 29 0 667 0 667 -29 29 c-18 17 -40 29 -56 29 -16 0 -38 -12
-56 -29z m106 -6 l25 -24 0 -666 0 -666 -25 -24 c-31 -32 -69 -32 -100 0 l-25
24 0 666 0 666 25 24 c13 14 36 25 50 25 14 0 37 -11 50 -25z"/>
<path d="M8111 4196 c-51 -28 -50 -15 -51 -708 0 -481 3 -654 12 -673 13 -29
55 -55 88 -55 33 0 75 26 88 55 9 19 12 192 12 670 0 478 -3 651 -12 670 -22
48 -88 68 -137 41z m110 -25 l29 -29 0 -657 0 -657 -29 -29 c-40 -39 -82 -39
-122 0 l-29 29 0 657 0 657 29 29 c20 20 39 29 61 29 22 0 41 -9 61 -29z"/>
<path d="M8879 4181 l-29 -29 0 -667 0 -667 29 -29 c40 -39 82 -39 122 0 l29
29 0 667 0 667 -29 29 c-20 20 -39 29 -61 29 -22 0 -41 -9 -61 -29z m116 -6
l25 -24 0 -396 0 -395 -80 0 -80 0 0 395 0 396 25 24 c15 16 36 25 55 25 19 0
40 -9 55 -25z"/>
<path d="M9645 4185 l-25 -24 0 -676 0 -676 25 -24 c13 -14 36 -25 50 -25 14
0 37 11 50 25 l25 24 0 676 0 676 -25 24 c-13 14 -36 25 -50 25 -14 0 -37 -11
-50 -25z m95 -5 c20 -20 20 -33 20 -695 0 -662 0 -675 -20 -695 -11 -11 -31
-20 -45 -20 -14 0 -34 9 -45 20 -20 20 -20 33 -20 695 0 662 0 675 20 695 11
11 31 20 45 20 14 0 34 -9 45 -20z"/>
<path d="M10400 4198 c-51 -27 -50 -16 -47 -725 l2 -662 23 -23 c32 -32 102
-32 134 0 l23 23 0 674 c0 668 0 675 -21 695 -26 26 -81 35 -114 18z m101 -27
l29 -29 0 -621 0 -621 -85 0 -85 0 0 621 0 621 29 29 c18 17 40 29 56 29 16 0
38 -12 56 -29z"/>
<path d="M11170 4198 c-51 -27 -50 -16 -47 -725 l2 -662 23 -23 c32 -32 102
-32 134 0 l23 23 0 674 c0 668 0 675 -21 695 -26 26 -81 35 -114 18z m101 -27
l29 -29 0 -657 0 -657 -29 -29 c-18 -17 -40 -29 -56 -29 -16 0 -38 12 -56 29
l-29 29 0 657 0 657 29 29 c18 17 40 29 56 29 16 0 38 -12 56 -29z"/>
<path d="M11919 4181 l-29 -29 0 -667 0 -667 29 -29 c40 -39 82 -39 122 0 l29
29 0 667 0 667 -29 29 c-20 20 -39 29 -61 29 -22 0 -41 -9 -61 -29z m116 -6
l25 -24 0 -331 0 -330 -80 0 -80 0 0 330 0 331 25 24 c15 16 36 25 55 25 19 0
40 -9 55 -25z"/>
<path d="M12700 4198 c-51 -27 -50 -16 -47 -725 l2 -662 23 -23 c32 -32 102
-32 134 0 l23 23 0 674 c0 668 0 675 -21 695 -26 26 -81 35 -114 18z m101 -27
l29 -29 0 -657 0 -657 -29 -29 c-18 -17 -40 -29 -56 -29 -16 0 -38 12 -56 29
l-29 29 0 657 0 657 29 29 c18 17 40 29 56 29 16 0 38 -12 56 -29z"/>
<path d="M13459 4181 l-29 -29 0 -667 0 -667 29 -29 c40 -39 82 -39 122 0 l29
29 0 667 0 667 -29 29 c-20 20 -39 29 -61 29 -22 0 -41 -9 -61 -29z m116 -6
l25 -24 0 -666 0 -666 -25 -24 c-32 -33 -78 -33 -110 0 l-25 24 0 666 0 666
25 24 c15 16 36 25 55 25 19 0 40 -9 55 -25z"/>
<path d="M5891 2682 c-1 -39 1 -43 22 -40 16 2 22 10 22 28 0 16 -6 25 -15 25
-8 0 -18 7 -22 15 -4 8 -7 -4 -7 -28z m29 -17 c0 -8 -4 -15 -10 -15 -5 0 -10
7 -10 15 0 8 5 15 10 15 6 0 10 -7 10 -15z"/>
<path d="M9740 2686 c0 -19 5 -38 10 -41 6 -4 10 10 10 34 0 23 -4 41 -10 41
-5 0 -10 -15 -10 -34z"/>
<path d="M11139 2704 c-10 -13 -10 -17 2 -25 8 -5 17 -9 22 -9 4 0 7 -5 7 -11
0 -6 -9 -9 -20 -6 -11 3 -18 1 -14 -4 3 -5 14 -9 25 -9 24 0 26 35 2 45 -17 7
-17 8 1 14 17 7 17 8 3 14 -8 3 -21 -1 -28 -9z"/>
<path d="M11914 2706 c-23 -17 -12 -66 15 -66 25 0 44 25 36 49 -8 25 -29 33
-51 17z m34 -28 c-5 -32 -28 -35 -28 -4 0 17 5 26 16 26 10 0 14 -7 12 -22z"/>
<path d="M5030 2681 c0 -16 -6 -32 -12 -35 -7 -3 -4 -5 7 -3 15 2 21 11 23 35
2 18 -1 32 -7 32 -6 0 -11 -13 -11 -29z"/>
<path d="M5770 2675 c0 -19 5 -35 10 -35 6 0 10 6 10 14 0 8 6 17 13 19 10 4
10 6 0 6 -19 1 -16 19 5 24 10 3 6 5 -10 6 -25 1 -28 -2 -28 -34z"/>
<path d="M6541 2673 c1 -34 2 -35 9 -13 5 17 8 19 9 8 1 -21 17 -24 24 -5 3 7
6 5 6 -5 2 -34 21 -18 21 17 0 38 -13 46 -29 18 -9 -17 -10 -17 -16 0 -12 30
-25 19 -24 -20z"/>
<path d="M7311 2678 c-6 -17 -8 -34 -5 -37 4 -3 9 0 11 7 3 6 11 12 18 12 7 0
16 -6 18 -12 10 -25 7 10 -3 36 -13 35 -26 33 -39 -6z"/>
<path d="M8071 2673 c1 -34 2 -35 9 -13 5 17 8 19 9 8 1 -21 17 -24 24 -5 3 7
6 5 6 -5 2 -34 21 -18 21 17 0 38 -13 46 -29 18 -9 -17 -10 -17 -16 0 -12 30
-25 19 -24 -20z"/>
<path d="M8880 2679 c0 -24 -4 -30 -15 -25 -8 3 -15 1 -15 -4 0 -6 9 -10 20
-10 16 0 20 7 20 35 0 19 -2 35 -5 35 -3 0 -5 -14 -5 -31z"/>
<path d="M9650 2679 c0 -24 -4 -30 -15 -25 -8 3 -15 1 -15 -4 0 -6 9 -10 20
-10 16 0 20 7 20 35 0 19 -2 35 -5 35 -3 0 -5 -14 -5 -31z"/>
<path d="M10363 2675 c-6 -20 -7 -35 -2 -35 5 0 9 5 9 10 0 6 7 10 15 10 8 0
15 -4 15 -10 0 -5 4 -10 9 -10 5 0 4 15 -2 35 -6 19 -16 35 -22 35 -6 0 -16
-16 -22 -35z"/>
<path d="M12034 2697 c-7 -21 -2 -49 11 -54 11 -3 14 52 3 63 -4 4 -10 0 -14
-9z"/>
<path d="M12661 2673 c1 -33 2 -35 8 -13 l7 25 12 -22 c18 -33 32 -28 32 12 0
19 -4 35 -10 35 -5 0 -10 -8 -10 -17 -1 -17 -1 -17 -11 0 -17 28 -29 19 -28
-20z"/>
<path d="M13440 2675 c0 -28 4 -35 19 -35 26 0 44 25 36 50 -4 13 -15 20 -31
20 -21 0 -24 -5 -24 -35z m38 3 c-5 -32 -28 -35 -28 -4 0 17 5 26 16 26 10 0
14 -7 12 -22z"/>
<path d="M5070 2690 c0 -6 5 -8 10 -5 6 3 10 -4 9 -17 0 -13 -3 -17 -6 -10 -7
17 -23 15 -23 -3 0 -9 10 -15 26 -15 22 0 25 4 22 27 -3 27 -38 48 -38 23z"/>
<path d="M5120 2669 c0 -16 5 -29 10 -29 6 0 10 9 10 20 0 27 17 25 23 -2 4
-16 5 -13 4 7 -2 24 -7 30 -24 31 -19 1 -23 -4 -23 -27z"/>
<path d="M5837 2694 c-4 -4 -7 -18 -7 -31 0 -17 5 -23 23 -22 21 0 21 1 2 9
-18 8 -18 9 -2 9 12 1 17 7 15 18 -3 18 -20 27 -31 17z"/>
<path d="M6626 2691 c-3 -5 1 -11 9 -15 17 -6 20 -26 4 -26 -5 0 -7 5 -4 10 3
6 1 10 -4 10 -6 0 -11 -7 -11 -15 0 -9 9 -15 25 -15 25 0 31 13 19 44 -7 17
-29 21 -38 7z"/>
<path d="M6680 2668 c0 -15 5 -28 10 -28 6 0 10 8 10 18 0 10 5 23 11 29 9 9
7 12 -10 10 -16 -1 -21 -8 -21 -29z"/>
<path d="M7383 2693 c-15 -6 -18 -73 -3 -73 6 0 10 5 10 10 0 6 6 10 14 10 19
0 29 30 15 46 -12 15 -16 16 -36 7z m27 -28 c0 -8 -4 -15 -10 -15 -5 0 -10 7
-10 15 0 8 5 15 10 15 6 0 10 -7 10 -15z"/>
<path d="M7441 2666 c1 -24 3 -26 6 -8 2 12 9 22 14 22 5 0 9 4 9 8 0 5 -7 9
-15 9 -10 0 -15 -10 -14 -31z"/>
<path d="M8156 2691 c-3 -5 1 -11 9 -15 17 -6 20 -26 4 -26 -5 0 -7 5 -4 10 3
6 1 10 -4 10 -6 0 -11 -7 -11 -15 0 -9 9 -15 25 -15 25 0 31 13 19 44 -7 17
-29 21 -38 7z"/>
<path d="M8213 2662 c1 -23 6 -42 10 -42 11 0 40 71 32 78 -3 3 -9 -4 -12 -17
l-6 -23 -13 23 c-11 22 -12 21 -11 -19z"/>
<path d="M8912 2674 c2 -21 9 -30 26 -32 19 -3 22 1 21 30 -1 21 -3 26 -6 13
-7 -31 -23 -42 -23 -18 0 12 -5 25 -11 28 -7 5 -9 -3 -7 -21z"/>
<path d="M8988 2693 c-19 -5 -26 -53 -8 -53 6 0 10 9 10 20 0 27 18 25 23 -2
4 -20 4 -20 6 4 1 30 -6 36 -31 31z"/>
<path d="M9682 2674 c2 -21 9 -30 26 -32 19 -3 22 1 21 30 -1 21 -3 26 -6 13
-7 -31 -23 -42 -23 -18 0 12 -5 25 -11 28 -7 5 -9 -3 -7 -21z"/>
<path d="M10422 2674 c2 -21 9 -30 26 -32 19 -3 22 1 21 30 -1 21 -3 26 -6 13
-7 -31 -23 -42 -23 -18 0 12 -5 25 -11 28 -7 5 -9 -3 -7 -21z"/>
<path d="M10497 2693 c-4 -3 -7 -21 -7 -40 0 -26 4 -33 19 -33 30 0 35 19 9
29 -17 7 -19 10 -5 10 10 1 17 9 17 21 0 19 -20 27 -33 13z m18 -13 c3 -5 1
-10 -4 -10 -6 0 -11 5 -11 10 0 6 2 10 4 10 3 0 8 -4 11 -10z"/>
<path d="M11201 2687 c-16 -20 -3 -47 23 -46 20 0 20 1 1 9 -18 8 -18 9 -2 9
12 1 17 7 15 18 -4 22 -22 27 -37 10z"/>
<path d="M11263 2693 c-15 -6 -18 -73 -3 -73 6 0 10 5 10 10 0 6 6 10 14 10
19 0 29 30 15 46 -12 15 -16 16 -36 7z m27 -28 c0 -8 -4 -15 -10 -15 -5 0 -10
7 -10 15 0 8 5 15 10 15 6 0 10 -7 10 -15z"/>
<path d="M11992 2691 c-20 -12 -10 -45 13 -49 18 -2 19 -2 3 8 -22 13 -23 30
-3 30 8 0 15 5 15 10 0 12 -10 13 -28 1z"/>
<path d="M12742 2691 c-20 -12 -10 -46 13 -46 14 0 20 7 20 24 0 27 -13 35
-33 22z m28 -26 c0 -8 -4 -15 -10 -15 -5 0 -10 7 -10 15 0 8 5 15 10 15 6 0
10 -7 10 -15z"/>
<path d="M12795 2679 c15 -50 45 -46 44 6 0 18 -1 17 -14 -5 -10 -18 -14 -20
-15 -8 0 9 -5 20 -11 24 -8 4 -9 -1 -4 -17z"/>
<path d="M13517 2694 c-4 -4 -7 -18 -7 -31 0 -17 5 -23 23 -22 21 0 21 1 2 9
-18 8 -18 9 -2 9 12 1 17 7 15 18 -3 18 -20 27 -31 17z"/>
<path d="M13577 2693 c-4 -3 -7 -17 -7 -30 0 -18 5 -23 23 -22 16 1 18 2 5 6
-21 5 -23 24 -6 41 7 7 8 12 2 12 -6 0 -14 -3 -17 -7z"/>
<path d="M4701 2082 c-19 -9 -44 -30 -55 -45 -21 -28 -21 -39 -21 -477 0 -438
0 -449 21 -477 46 -63 46 -63 514 -63 468 0 468 0 514 63 21 28 21 39 21 477
0 438 0 449 -21 477 -46 63 -46 63 -514 63 -385 0 -428 -2 -459 -18z m263
-185 c15 -40 -6 -77 -44 -77 -38 0 -64 36 -54 75 13 50 80 52 98 2z m276 24
c0 -14 5 -18 19 -14 13 3 23 -2 31 -16 l11 -22 18 22 c23 29 61 18 61 -17 0
-18 -6 -24 -22 -25 l-23 -2 23 -4 c32 -6 27 -23 -8 -23 -17 0 -33 7 -40 18
-10 16 -10 16 -20 0 -7 -12 -23 -18 -45 -18 l-35 0 0 60 c0 47 3 60 15 60 8 0
15 -9 15 -19z m-144 -5 c16 -17 19 -36 4 -36 -5 0 -10 -9 -10 -20 0 -11 5 -20
10 -20 6 0 10 -5 10 -11 0 -6 -10 -9 -22 -7 -17 2 -24 12 -28 33 -6 37 -43 43
-48 8 -3 -18 2 -23 17 -23 12 0 21 -5 21 -11 0 -6 -14 -9 -32 -7 -28 2 -34 8
-36 31 -4 36 15 60 45 54 13 -2 28 2 34 9 14 17 17 17 35 0z m85 -16 c38 -21
18 -80 -28 -80 -33 0 -49 35 -28 66 17 27 27 29 56 14z m279 -1 c0 -5 -7 -12
-15 -15 -9 -4 -15 -19 -15 -35 0 -19 -5 -29 -15 -29 -11 0 -15 11 -15 43 0 42
1 44 30 45 17 0 30 -4 30 -9z m-402 -210 c2 -14 -4 -31 -12 -39 -22 -17 -20
-28 7 -33 12 -2 2 -5 -21 -6 l-44 -1 26 31 c14 17 26 37 26 44 0 18 -17 28
-25 15 -4 -6 -11 -7 -17 -4 -14 9 12 25 37 22 13 -2 21 -12 23 -29z m88 7 c11
-46 1 -81 -25 -84 -28 -4 -41 12 -41 54 0 53 54 78 66 30z m82 0 c2 -10 -5
-31 -17 -47 l-21 -28 23 -4 c13 -3 7 -5 -15 -6 -44 -1 -47 7 -13 39 32 30 32
50 -1 50 -15 0 -23 4 -19 11 11 17 59 6 63 -15z m82 -17 c7 -39 2 -69 -11 -69
-5 0 -9 7 -9 15 0 9 -9 15 -25 15 -31 0 -31 2 -2 45 27 42 40 40 47 -6z m-198
-256 c27 -25 23 -74 -12 -121 l-30 -42 35 0 c28 0 35 -4 35 -20 0 -18 -7 -20
-75 -20 -48 0 -75 4 -75 11 0 6 20 34 45 61 52 58 62 108 22 108 -13 0 -28 -5
-33 -10 -8 -8 -15 -6 -24 5 -30 36 74 63 112 28z m163 11 c41 -16 59 -118 30
-173 -20 -39 -66 -57 -105 -41 -33 14 -36 20 -18 38 7 7 17 8 28 2 11 -6 24
-4 38 6 29 20 30 48 1 39 -35 -11 -66 3 -78 35 -23 68 35 120 104 94z"/>
<path d="M4896 1892 c-9 -27 3 -54 23 -50 22 5 22 62 -1 66 -9 2 -19 -5 -22
-16z"/>
<path d="M5247 1884 c-11 -11 -8 -44 3 -44 15 0 24 30 13 41 -5 5 -12 6 -16 3z"/>
<path d="M5335 1880 c-3 -5 1 -10 10 -10 9 0 13 5 10 10 -3 6 -8 10 -10 10 -2
0 -7 -4 -10 -10z"/>
<path d="M5146 1874 c-7 -18 0 -34 15 -34 12 0 12 37 0 44 -5 3 -12 -1 -15
-10z"/>
<path d="M5105 1698 c-9 -22 -2 -68 10 -71 14 -3 19 63 6 76 -7 7 -12 5 -16
-5z"/>
<path d="M5272 1670 c-10 -17 -10 -20 3 -20 8 0 15 9 15 20 0 11 -1 20 -3 20
-1 0 -8 -9 -15 -20z"/>
<path d="M5214 1385 c-9 -23 3 -45 25 -45 25 0 34 14 26 40 -7 23 -43 27 -51
5z"/>
<path d="M12882 1820 c-65 -40 -72 -64 -72 -260 0 -196 7 -220 72 -260 32 -19
52 -20 523 -20 471 0 491 1 523 20 65 40 72 64 72 260 0 196 -7 220 -72 260
-32 19 -52 20 -523 20 -471 0 -491 -1 -523 -20z m318 -174 c0 -8 7 -17 16 -20
25 -9 10 -31 -21 -31 -33 0 -45 -21 -17 -29 29 -10 62 -45 62 -66 0 -11 -9
-28 -20 -37 -11 -10 -20 -23 -20 -30 0 -7 -9 -13 -20 -13 -11 0 -20 6 -20 14
0 7 -9 16 -20 19 -11 3 -20 12 -20 21 0 12 9 15 38 13 47 -3 48 14 2 45 -42
28 -49 59 -21 87 12 12 21 26 21 31 0 6 9 10 20 10 11 0 20 -6 20 -14z m180
-31 c0 -10 -11 -15 -35 -15 -24 0 -35 -5 -35 -15 0 -8 8 -15 18 -15 31 0 62
-29 62 -59 0 -48 -50 -77 -100 -60 -32 12 -35 16 -21 38 6 9 11 10 15 2 10
-16 56 -13 62 4 9 23 -15 46 -41 39 -30 -7 -38 8 -30 56 l7 40 49 0 c37 0 49
-4 49 -15z m140 -40 c0 -30 5 -55 10 -55 6 0 10 -7 10 -15 0 -8 -4 -15 -10
-15 -5 0 -10 -9 -10 -20 0 -13 -7 -20 -20 -20 -13 0 -20 7 -20 20 0 17 -7 20
-40 20 -50 0 -50 9 -4 83 27 44 41 57 60 57 22 0 24 -3 24 -55z m160 40 c0
-10 -11 -15 -35 -15 -44 0 -48 -25 -5 -34 58 -11 60 -95 4 -116 -43 -17 -105
10 -83 36 8 10 15 10 29 2 25 -16 52 -3 48 24 -2 19 -8 23 -36 20 l-32 -2 0
50 0 50 55 0 c42 0 55 -3 55 -15z"/>
<path d="M13460 1551 c-13 -26 -13 -31 5 -31 9 0 15 9 15 25 0 30 -6 32 -20 6z"/>
<path d="M6175 1499 c-4 -6 -4 -13 -1 -16 8 -8 36 5 36 17 0 13 -27 13 -35 -1z"/>
<path d="M4701 582 c-19 -9 -44 -30 -55 -45 -20 -27 -21 -44 -24 -283 l-3
-254 541 0 541 0 -3 254 c-4 375 40 346 -538 346 -385 0 -428 -2 -459 -18z
m278 -193 c7 -23 15 -47 18 -55 7 -20 -17 -17 -33 4 -13 16 -15 16 -28 0 -14
-19 -36 -24 -36 -10 0 5 7 29 16 55 21 61 46 63 63 6z m415 22 c11 -12 14 -21
7 -26 -14 -8 -14 -45 -1 -45 6 0 10 -4 10 -10 0 -5 -11 -10 -24 -10 -20 0 -25
6 -28 32 -2 25 -8 32 -27 33 l-23 2 22 -17 c31 -23 20 -50 -20 -50 -16 0 -30
5 -30 10 0 6 9 10 21 10 21 0 21 0 -2 19 -20 16 -22 21 -9 35 9 12 22 15 37
11 16 -4 25 -1 29 10 8 20 17 19 38 -4z m-364 -36 c0 -44 18 -46 22 -3 5 52
28 47 28 -6 0 -46 0 -46 -34 -46 -22 0 -36 6 -40 16 -8 21 -8 59 1 67 15 15
23 5 23 -28z m145 13 c-4 -13 -14 -28 -22 -35 -12 -10 -11 -12 6 -18 38 -12
18 -55 -25 -55 -31 0 -38 16 -35 70 3 50 12 60 54 60 25 0 27 -3 22 -22z m43
-16 c4 -44 22 -40 22 4 0 51 24 39 28 -14 l3 -42 -40 0 -41 0 0 46 c0 53 23
58 28 6z m-160 -183 c2 -14 -4 -31 -12 -39 -22 -17 -20 -28 7 -33 12 -2 2 -5
-21 -6 l-44 -1 26 31 c14 17 26 37 26 44 0 18 -17 28 -25 15 -4 -6 -11 -7 -17
-4 -14 9 12 25 37 22 13 -2 21 -12 23 -29z m88 7 c11 -46 1 -81 -25 -84 -28
-4 -41 12 -41 54 0 53 54 78 66 30z m82 0 c2 -10 -5 -31 -17 -47 l-21 -28 23
-4 c13 -3 7 -5 -15 -6 -44 -1 -47 7 -13 39 32 30 32 50 -1 50 -15 0 -23 4 -19
11 11 17 59 6 63 -15z m84 -1 c8 -18 9 -35 2 -53 -13 -38 -55 -38 -68 0 -21
60 40 109 66 53z"/>
<path d="M4940 380 c0 -5 5 -10 11 -10 5 0 7 5 4 10 -3 6 -8 10 -11 10 -2 0
-4 -4 -4 -10z"/>
<path d="M5125 381 c-3 -5 -1 -12 5 -16 5 -3 10 1 10 9 0 18 -6 21 -15 7z"/>
<path d="M5120 310 c0 -5 7 -10 16 -10 8 0 12 5 9 10 -3 6 -10 10 -16 10 -5 0
-9 -4 -9 -10z"/>
<path d="M5105 198 c-9 -22 -2 -68 10 -71 14 -3 19 63 6 76 -7 7 -12 5 -16 -5z"/>
<path d="M5264 185 c-8 -20 4 -65 16 -65 12 0 24 45 16 65 -3 8 -10 15 -16 15
-6 0 -13 -7 -16 -15z"/>
<path d="M12652 320 c-60 -37 -72 -70 -72 -202 l0 -118 196 0 c199 0 215 4
153 35 -36 19 -41 67 -9 87 11 7 20 18 20 25 0 7 7 13 15 13 8 0 15 -6 15 -14
0 -8 9 -18 21 -21 31 -10 16 -30 -19 -27 -44 4 -42 -20 3 -47 19 -11 35 -27
35 -36 0 -12 12 -15 55 -15 39 0 55 4 55 13 0 9 -9 12 -28 9 -33 -4 -62 19
-62 49 0 24 43 69 65 69 9 0 27 -11 40 -25 19 -18 25 -35 25 -70 0 -25 5 -45
10 -45 6 0 10 5 10 12 0 7 14 36 32 65 27 44 37 53 60 53 27 0 28 -2 28 -51 0
-68 13 -79 94 -79 l66 0 0 45 c0 38 -3 45 -20 45 -11 0 -20 4 -20 10 0 13 34
30 59 30 19 0 21 -6 21 -65 l0 -65 44 0 c37 0 48 5 71 31 34 42 30 64 -14 64
-43 0 -50 19 -13 34 22 9 35 9 56 0 36 -17 43 -51 17 -94 l-20 -35 179 0 180
0 0 118 c0 132 -12 165 -72 202 -32 19 -52 20 -638 20 -586 0 -606 -1 -638
-20z"/>
<path d="M6810 75 c0 -22 4 -26 23 -23 14 2 22 10 22 23 0 13 -8 21 -22 23
-19 3 -23 -1 -23 -23z"/>
<path d="M13074 86 c-8 -21 3 -36 27 -36 15 0 20 6 17 22 -4 27 -35 37 -44 14z"/>
<path d="M13237 53 c-15 -29 -16 -33 -2 -33 18 0 28 21 23 47 -3 14 -8 11 -21
-14z"/>
<path d="M6605 50 c-3 -5 3 -10 14 -10 12 0 21 5 21 10 0 6 -6 10 -14 10 -8 0
-18 -4 -21 -10z"/>
<path d="M7117 53 c-4 -3 -7 -17 -7 -30 0 -18 5 -23 25 -23 25 0 31 13 19 44
-6 16 -26 21 -37 9z"/>
<path d="M7265 50 c-4 -6 5 -10 20 -10 15 0 24 4 20 10 -3 6 -12 10 -20 10 -8
0 -17 -4 -20 -10z"/>
<path d="M6968 3 c7 -3 16 -2 19 1 4 3 -2 6 -13 5 -11 0 -14 -3 -6 -6z"/>
</g>
</svg>
